<mxfile host="Electron" modified="2024-02-19T20:26:34.680Z" agent="Mozilla/5.0 (Windows NT 10.0; Win64; x64) AppleWebKit/537.36 (KHTML, like Gecko) draw.io/23.0.2 Chrome/120.0.6099.109 Electron/28.1.0 Safari/537.36" etag="HBO2c1bsanMQ7Jjs0_Nj" version="23.0.2" type="device">
  <diagram name="Page-1" id="mI2vkCctm-4a-pUExtSH">
    <mxGraphModel dx="1591" dy="2100" grid="1" gridSize="10" guides="1" tooltips="1" connect="1" arrows="1" fold="1" page="1" pageScale="1" pageWidth="827" pageHeight="1169" math="0" shadow="0">
      <root>
        <mxCell id="0" />
        <mxCell id="1" parent="0" />
        <mxCell id="2ahgyDx1HdKbby2nlmxa-3" value="" style="shape=image;verticalLabelPosition=bottom;labelBackgroundColor=default;verticalAlign=top;aspect=fixed;imageAspect=0;image=data:image/png,iVBORw0KGgoAAAANSUhEUgAAAk4AAAKGCAYAAAC84hQsAAAAAXNSR0IArs4c6QAAAARnQU1BAACxjwv8YQUAAAAJcEhZcwAAEnQAABJ0Ad5mH3gAAIRVSURBVHhe7d2/T+NY2/j/i28d3cVWaBqmQFDEIijVlBR0gxQkmhGjRFtQfPgHSEGRTZno+QPugmKVPINoRkpuhY6C4inuKgLkFIMoWGm1otpilRIp33Ps49jOLzs4gYR5v1beiX1i+9gJ8ZXrnPisHB8f905PT+UtPT8/m0fzsfb7R/NI5I9fH80j19ramnkEAAAw2f9n/gUAAEAEAicAAICYEgZOj3J9cSZnZ+50cR1uBnO0W/3ys1bbLAQAAFg+iQKndutKuhtHcnTkThvdKwnGRo/XF3J2n5JdU76bug+VAwAALJNEgVN270j2smZGyX5YNY9cH3e+yNGXHfG7ZgMAACyvGfZxakvrPiVWIJBy+c15V92NUKAFAACwTGYUOKmg6exeUp9GZZc+ys4Xt6kuq59HUx0AAFhSyQMnp/O3Cpp2v8hORJtcVqeb/iJyAgAAyylh5/Az0/nbBE0qiApmlHR5eL4t3dQvZg4AAGC5JAic2vLXk/qn+yBX3u0G2nqBL7u3K6l7U6amtmTlS1RaCgAAYEEx5ApDrgAAgJhm+Ks6AACA943ACQAAICYCJwAAgJgInAAAAGIicAIAAIiJwAkAACAmAicAAICYCJwAAABiShg4Pcr1hX9n8Ivr8M0lfXoQ4Enl70OzsCKFppkBAADvTqLAqd26ku7GkRwdudNG9yo0Np2n3bqXVHZdUmb+vcrVelLLmRkAAPDuJAqcsntHspc1M0r2w6p55Hu8vpD71CfZWdCxfQsrK7JSKLj/rhSk2Syof9Xj7ap0zHOkU5Vtp9ydtqv9Epe3jpqGMk6mrFANbCO47b6mXwezBAAALJYZ9nFqS+s+JVYgkJJ2S666Gws9sG+t15B8/U4suyfqoeyXLLF7PbEPbbnsRzebUtblarmeyvZXCcVOuZpb1sibBQG6TC2vF20pm/Xtw3OpEB0BALB0ZhQ46T5M95L6tCPBEKn915PIU9vtA3X1IE8Po5vy3ly+LCdp92Hm8LOYhwE/pGSZbJGa9utm8RTyjZp4rXjpzS25+zGYc8qpIE4HVv7zAADAYkkeOLVbKjBSQdPuFxlMLOmmPK//09Huuqyu74aa9pZDR6pf/WyRkzGqbJkyAADwM0nYOfxMzu5TsntkgiYVRC1kRimRB7HFknUzp/s7fS3emZlZoo8TAACLLkHg1BbdEifdB7kytyM4a+sFw3QH8UVtqius7Eu9vi8rplf3bdEynb/vpGhtS7WTk+LhuVimmW7FsuWwIqZMr9GR6rYp269Lfd889jqA687hZrmzCzOv98OtCwAAWC4rx8fHvdPTUzP7Np6fn82j+Vj73W9D/OPX8L2k1tbWzCMAAIDJZvirOgAAgPeNwAkAACAmAicAAICYCJwAAABiInACAACIicAJAAAgJgInAACAmAicFoa+kWZBmp2qFEIjCAMAgEWRMHB6lOsLc9dwNV1ch28uqe8u3vLuKu5MLbUEo5mhXR5skc3hYYaXhxk6Zg63RW8WzF3Zncm7c/vi0PVb/rvBz+/1ex84Py+1GH8f7/f1ex+fP8shUeDUbl1Jd8MfyHejO2JIldWsP9Dv0Z4s3Ri/r6XzQ+Tws4j6x+oPjLeMclLrNSRv5manKd+l0R9oude7kZNXiy9NNtDMjZOr9aSWMzNLa16v33uxjOcn3vv35Zbp7+P9vr9ffn7n/f54fxIFTtm9I9kLRELZD6vmEabhZFKsotSLlljFuhStFTNeXjQ3C+M28W33szEDfwShslHb1n84gfJCQU3T/Bl5AxTraVQmKFiupim/FnWq22o9M6bgmG2458FM3jiBmh4bUC0rVAPnIFhuhNYvVP0PEufcWVK8rcu+Vz54jGYfehp3aMnql/T1iRL1+iWt/8D6wfMbwV3v/b6/4xyfd+70cbl/C2p+4ByPfX3ivH9j1H/s67cQfx9Rkr5+yd4/0a/fNPtX5907J97TIs/vhPrHeP1mW//pz98immEfp7a07lNiDaaUntp+U93FtQw25sH9ptBr5CVTsaWRz0jF7slNzHSKXreRv5PSV1vKXjbGtqQUemNvSllt08vWlO2vAx9sFbHLgXKpy60piqb/KEpi9bdfFttSQY4p1ZqFYHlPlZdGfjiPkz65Ueupb4n5QMYp8NVK/2GXLNsvK9tiedvP1ZxzWy/658c+PJdKYPf6wyC4vm2dqw8SU5g+kZueLZVMXhqmfCjbpfehl6v9jJK0fslenyhxXr85nt8I7/39Hef4vM8HPTC4ZZfd55Q35cGUT3x9Yrx/o+q/8H8fE83g9Uv49xf9+k3ef7Ng+fvX7439unOt6H8ERpzfifWP8folrf98P7/exowCJ92X6V5Sn3bEH05Xy8pev5lOTRtduRpqy0Nyt7JVrkk/lFB/DN8ObbnsXzx+qA8mP+JXf3dhuQNRXzf88jv1Ro+b8+1cqg+yb4E/tJzU7IpkzJz6q5Hv9Vsni+Zt39Kfunc/Ahe+JNwmvFCgqT5IGmpp8LM13/DPT3pzS+3e23tHLu1D+RZY3w3UAuczkaT1U5K8PlHivH5vfn7f+/s76vhc+mLZ/8KQy5nnx3t9xouq/xL8fUwyi9dvRn9/Y1+/iftX5Wp/xf7Bq/dGxa99LG9af2Wen19vJHng1G7JmQ6adr/ITjhqGpb9IDTmDdPfuFbUp72O6PfNm3C4uWGSzIR+UeobV/DbrP5GUNkyZR7d7u+Xh77xzUJG/aEEt6+nmxMJfFRiojm/Pgvvvb+/Jx3fK/jZ/z4jj3+x3j86cJzOW9f//X1+JewcfiZn9ynZPTJBkwqiggklXR78pd3j9b10U7+YOXi8VGi+odP2bso09A0skgq2Qrlr/S3Rks/OJsyv9ZzlSqcqX4t3ZsbVLIxq948p/Vms80ro22GzUgykYnNSnCq1Pq2cHEhpoP76W+yBKokjLZtSHKifbrMPnhP1nK076X/J1X0KQk1FkyStn95djNfH9HOYLuBWYrx+8z+/Ud77+3vS8UWJ8/pMev9G1X/x/z4mmsHrl+j9Eylq/+r8bJ0Hso/qi0JpMKU6WXT9k71+b3v+3sjx8XHvzz//fMH0n96/f/ut99vA9O//hJ/3n38Hyv/9n1CZNz0+Ps516v2mAl0zDZUtCLuS71Vsu1fJV3oqep+KCrZ6lUqmp17O/qSCsD47VOY9N6P255armC1QrqbMlHWwK71MYP1MpdLL68f9Sqjjyvjl0+5jqH5qyniVdzTc/fUn/9jUyv3lTnUG5x2D9Qus7wmsp8+hf3pHHJueQseXrH5xXh/3NQ7WawqRr98rnN8J3v/7e9LxDZ57PQ2evwmvj2fs+1eLqv9i/31ESvj6JXv/xHn9os5/eBt59X7xP/+iz2+s+o99/ZLXP/Hf3wJa0YHT6empOp638/z8bB7Nx9rvfhviH7+Gu6evra2ZR2+rWSiIFC0pVTblZsr2X2fd2qz6HGD56A6wlpwf2lNmKpfDe39/8/eLaejO+pXNm3dw65PlNcNf1SGJnP7g1L9wmDpo0p1hzU9Jf6p+L/A9iH2bl/K7DJre9/ubv19E01+M3I7VTudru0zQ9MbIOC1IxgkAACw+Mk4AAAAxETgBAADEROAEAAAQE4ETAABATAROAAAAMRE4/UyahbGjkwNvS//kuiDNTlUK7+42wwDek4SB06NcX5zJ2Zk7BYdXCXm8lgvznLOLa7UWQsxwGXqaFNjoe768NPDxxsOrO4MtvuAW+IE6Tj2sRxzz3j4WnBk65cEW2XzZ/aiS/H0kxvsX+GkkCpzarSvpbhzJ0ZE7bXSvQmPVOfQgwFdd2TDPOfqyI1FjAf90cjV38MNG3iwYTY9p96Ibn6kP9ZJl9wdZjNjNsE5VtktWfyDHsv11tmMPzXv7WHydHyKHn0XUPy8d8PbFfx9J8f4FfiqJAqfs3pHsZc2Mkv2wah552tJyBgHek8DTMK2YGalJtgLf4nO1GwnfZDp8Z9rtQkFN/o46l7YcfvNHu84VD8X2R51MbN7bx2JzsqFWUepFS6xiXYrWlFmbJH8fgXUHp7jb4v0L/Fxm2MfJDZKsYIT0+I+IiqVsr5nurKWehanFzEiNlSuKVdIXgzFNdM2K2GX327LzjVnqgdHDR7uzH8yj+Zj39rE4dKZIv7czFVsa+YxU7N50Y+4l+fvw1h0xJcle8f4F3q8ZBU4qaDq7l9SngWa4v7vy9KA+QLKmmW43JfdDbXmYv7Sc3OiLQVls9W1+KIDKHYg4fZ/caf9OBVIMhoSfwQwyTgB+LskDJ92HSQdNu19kZ1TnpdS6n4X6+FFW5R86h7+yZsELlHJS09+mG1sS/kJslntT2RYr4qqx9dKOKDHNe/tYHN4PF26LluzXb6dvqktiThkn3r/A+5Wwc/iZnDl9mEzQpIKoUEIpuyfZ1JM89iOlv6Ur/6Jz+KtzL0b9b9MlS4qBi4IfWI2W/myF+mw0K+difR5oSjHf3F9ywYu1fbxbXlNdvqF/uJCXhgpapmqqe2O8f4GfS4LAqS1/Pal/ug9y5fVhausFYdm9DeleeX2c7iUV6gSFUMfs/u0C1LRdVSVxyqM5FyZ1MbIreaf/SO/G78jqGg6sQk116RM5sK1+ecn6NtC5XNXyx536f17KL7ngxdg+3jf9ozprvSM/9C0JzLJ4kv99JMb7F/iprBwfH/dOT0/N7Nt4fn42j+Zj7Xc/x/XHr+GGwrW1NfPo/etUC3L5uTaHD3V98bLk/NBeqkwBFkezUBAVvUupsik39K8DsMAInH6iwGl+mlJY+S4HvZpwyQMAvGczvB0Bfl66czlBEwDg/SNwAgAAiInACQAAICYCJwAAgJgInAAAAGIicAIAAIiJwOln0iww/hYAAAkkDJwe5frCuyv4mVxcB++RFC7zJsb4HSEw0OikwEaP6fXSwMcbD8y9s/LkIVZGcdZX9Zv1GGKd6nZou968MxHlAQAWTKLAqd26ku7GkRwdudNG92ogMFqVrCnT0+56yixHiDfQaCNvFoymh0550U2VVWBWsuz+4KURuxnmrT/1itHSJzdOfW6LFdFhkp7v9RqSzzekxx2kAQALJlHglN07kr3A0HPZD6vmkfZRdr7siV/8KI9PKfnAUHXTi5mRmmRr0x8KJVe7GRh2JTDel5q2CwU1BXakArv5DqWSkUrDku8zzmYBADBrM+zj1JbWfUrGjuH7+ChPqQ+BQAqxxcxIjZUrilXSQdGYJrpmReyym43SU1nqcmuKXs26Hij169RNiAAAvKYZBU4qaDq7l9SnHfFHhQt7fHySFOmmN5KWkxsdFJXFtkYEULkDEW9UeTXt36lA6g2ayXLFQzmv0K8JALC4kgdO7Zac6aBp94vsjIuaaKZ7U82CFyjpMeV05mpL7AenyDDLvalsi/UWHbPTJ/LNKvHLPwDAwkrYOfxMzu5TsntkgiYVRI381RzNdG/sVopOpslMJUuKgYSSH1glYPphJf3VXfqkLFIqyZ2ZBwBgkSQInNry15P6p/sgV97tBtp6wTCa6SYJdMzu3y5ATdtVVRKnPJr+NZ7OJNmVvFRs9fjmRMJdvYcDq2BTXf8WAWr/t0XLfTyQFur80KFOXspTdiLX296vu/t3g66c1Mpbr9/HCgCAGFaOj497p6enZvZtPD8/m0fzsfa734b4x6/Be02psrU18+j961QLcvm5NvCLulnQwZ0l54f2nH99BwDA25rhr+qw6NIn8wiatAexb6fPNgEAsGwInDADunN5Tf0fAID3jcAJAAAgJgInAACAmAicAAAAYiJwAgAAiInACQAAICYCJwAAgJgSBk6Pcn1h7hqupovr8M0lNWdYlgnlAAAAyyJR4NRuXUl340iOjtxpo3sVHquu3ZL71G6g/L9C7AQAAJZVosApu3cke4Eh6LIfVs0j1+M/XUn9yx/u5JeUSPdvMwMAALBkZtjHqS2t+5RYgUDq484nSd37TXVX3Y1QoAUAALBMZhQ4qaDp7F5Sn3bEzy8pj48igaa83dQ/6pkAAADLKXng1G7JmQ6adr/ITihq0nFTV+QXM6N8/FdX/iJyAgAASyph5/AzObtPye6RCZpUEBXqHA4AAPCOJAic2vLXk/qn+yBXpg/TWVsv8H3c+SDdK7+Pkw6ygn2gAAAAlsnK8fFx7/T01My+jefnZ/NoPtZ+99sQ//g1fD+EtbU18wgAAGCyGf6qDgAA4H0jcAIAAIiJwAkAACAmAicAAICYCJwAAABiInACAACIicAJAAAgJgIn+JoFKTTNYwAAMCRh4PQo1xf+ncEvrsM3l9Qery8mlkNRAcvKyoozvVXg0iyo/e/Xpb6v67Et1Y4piKUj1W23/nranm5lAACWRqLAqd26ku7GkRwdudNG9yo8Vt3jtfz3aVV2x5XDlatJr9eTXiNvFrwyFbiVLNutg5qmrUazYIlddtfVU9m2yFyF6MCyIJwSAFh+iQKn7N6R7AXGnst+WDWPjL+7ktrYEW/Ak6x+8l9ETtNwMkEDWRxv2YqKTjrV7XCmJ5C90uVxbW2mzSMdx93IiT+rDGSUCgU1+dvO1XpSy5kZJXcwuwAw3vE1peAtCy339c+ZU16dMpCZsH1Tn0K1Ktte+XZVnTGjo5dbUryty75XPpDRC77G/eMNbiPy+KKPHwAwGzPs49SW1uAgvr+kpHt/LV4D3eP1vTx1/+nPI5oThOQbchOIZHSgorNC+YOcpE9u3MeNnvscnb3SCzIVsYPRzCS5olglfdEd00TXVNsKZpSkLremaJi6iJdUoBBz11HiHF+zUBLL9utnW6VQ8KCDkWBGzbbOVSBjCmOYuH1Tn3rRlrJXfnguFW/36RO56dlSyeSlYcp7vXBgql9PvY3boqX2U3afU96UB1MedXxR5QCA2ZlR4KSCprN7SX3ys0uOjzvyafVJrkwfp6vuqqynTBniWbckc/fDyT44mQnngtiU7/WMWOvOM5zgql7yMhQdqZbqki+fSChpNFFaTm70RbesLrojAqjcgYjT98md9u/GBWU686Eu4t+m2Xe0ycenz8WtFJ16u5OloyJzzvTzL+1D+RaIVHQw1uvVJF5sF7V9V77hby+9uaWKg6XxZCoquPPOay5nthe1/3j1AwDMRvLAqd1SQZEKmna/yE4oanJ93PnS7wN1tPcv6cq/wsEVJkt/lkM5l8uOukBKQ/33XZqdH3KXOZTPXiyQK0pF1KRjqs6leraaixcVOJoFL1DKSU1nLRpbYnvpDodZ7k1lW6zBjIbTZKUzH4PNfDMQdXw6+xSsn55uZhi8zXv7UaL2/9b1A4CfSMLO4Wdydp+S3SMTNKkgalLn73ZLBVihtjxES8vm1q3Yle8iBzkn+VP6ei63W5uBC2NaTspuVqZaKYocfp7yohnOWKwMNLX5gdVoTiZMrWN7TVAqiBpqKTJ9gV72i7tJx5eTYrBpbIg6f17Q1aczY5OPyRe1/Tj0a3gn/SSUPhehPkyTRO1/FvUDAMSVIHBqy19P6p/uQ78p7qytFwQ8XsuFV6am+9SnkVmpn1ug43X/dgBqClxYnaaq+p3bNKcip63bW6d/U4jJyhTreSlPmfJx+tj0eio4y0tF95UZylYMB1Z+U51uKlL/3BbF8srVcQzq/LhT/5++bn0Tji998s300QpMwfNXswfKp8uMTdy+DoLM6+a2orrzur9SMHjMHWz553BfpNE/x6Zjt1nH3X44qIs6vqhyAMDsrBwfH/dOT0/N7Nt4fn42j+Zj7Xc/Wvvj13DX9LW1NfMInWpBLj/XZt/Upi7h1W1Lzg/tUCd3AACWzQx/VYdllz6ZR9CkPYh9myDbBADAgiBwwivQncvj/ooNAIDFReCEn9jAjSOHJu72DQAII3DCT2zgNgtDE1kyAEAYgRMAAEBMBE4AAAAxETgBAADEROAE36g7fgMAgL7kgZMzVp25O/io8VYC5RfX4ZtPwjDDkejprQIXZ9iU/p3L4w5HEhA4Bkbmnw/9GnFqAeBtJQqcHq8vzFh17iC+u6n78Fh1esiVQPlG979C7DRCrub+iquRNwtemQp6Spbd/zXZtNXoVLfNWHXu+rZV4gI/FX1n9ehbH+ihcfoj3QAA3kSiwOnjzhc5+rIj44afe3zsyuonvzxrrUr3kchpGk4maCU8OK63TGd2nKDFZHqc57ww87O16d/VO1cbHMctMJ6e3k+hoCZ/2+mTm7mNxh/v+AbuxzTiuPvnzCmvxgpUfJOPXwttf2CcuOBr2D8e7zmdqmyvWFK8rcu+t/5gxi8yIxl9/ACA2ZhBH6dHub5wm+KuuhuylzWLx+h2/zaPEIce4FfyjdAYbzrzoLNCeqBfHbQ4jxs99zk6e6UXZCqBgXgj5IpmkNgxTXRNta2yd2+jnpSlLremyOcHF5ZdnllmJM7xNQt60F6/fjrjFQwedLASzKjZ1rkKVExhHBHHrwOj4PZ7ZVuswP6dQZRVnfUgvvrcuM/ZlAddmD6Rm54tlUxeGt76vYHANSIjGXX8AIDZmUHg9FF2vrhNcVlph5vqkNy6JZm7H052wslcOBfEpnyvZ8Rad57hBFf1kpflUAFMqS758jQZoLSc3OiLbllddEcEULkDEafvkzvt340KyrxtqKBO9mfaVDf5+PS5uJWiU293snRUZM6Zfv6lfSjfApGIkyGb5uaWE49f7V8dcWjwYhXoNNTSwVOQqajgylsvl5vRzTWjjh8AMEszCJx8WZ1u+mty5JRK/WIeIZb0ZzmUc7nsuBdo54Lc+SF3mUP57F2rc0WpiJr0lbpzqZ6t5qa4KjcLXqBk7qTd2BLbSYd4Bu6wPZBRGZSrNUS+zzJyijg+nX0K1k9PM206nO74X93cjx8A4EkUOLVbZ6EMU1vNdAOB0cePqVCfprb9JKmP43pEYbS0bG7dil35LnKQc5Ifpa/ncru1GbgwpuWk7GZlqpWiyOHnKS+a4YyF7ugdDEz8wGo0nQkLxhHNwr7ceekwj+mnE+yrFd+k48tJ8VCFUmPjGHX+vKCrT/cJmnxMQZOPPycHUhoo10HugSqJS7/Gd/LD24Y+VwP9pMaLOn4AwCwlCpyye7uSuje3IlBTW7LyZScQGH3ckQ/dq375feqTBIuhBToe928HoKbAhdNpqqrfuU1zKnLaur11+jeFmKxMsZ6XcqiDTDSnD06vp4KzvFR0X5mhbMVwYBVsqsvVbNNHyp32B5uulM6PO/X/6evWN+H40iffQvt3puD5G6jfyoruEzTYAX6SqOP3mji9SW2/H3majtvqtdV9nNzy4UAsd7Dl72NfpNF/DaLfH1HHDwCYnZXj4+Pe6empmX0bz8/P5tF8rP3uR2t//Br+Vd/a2pp5hE61IJefa1MEFHHpi78l54f2UEAFAMAymWkfJyy39Mk8gibtQezbBNkmAAAWBIETXoHuXD3Fr9gAAFhQBE74iQ3cOHJomuYmmQCAnwGBE35iA7cZGJrIkgEAwgicAAAAYiJwAgAAiInACQAAICYCJ/iahZmOMQcAwHuTPHBqt/p3Bj8bMcKvHpZFl11ch288iQAzHIme3ipwcQYQ7t+ZOv5wJK7BX6fxazQAwPuUKHB6vL6Qs/uU7B4dyZGadlP3obHrdFB1n9qVo+yqWYCRcjX3V1yNvFnwylTgVrLs/q/JXlSNfKO//vv7NZq+8znBIAAgYeD0ceeLHH3ZkbHDz2X3wmPXYWpOJmglPDiut2yl0JROdbuf6XGeE8he6fK4tjb9u3rnaoPjuAXGS9P7KRTU9DphRLzjG8h4jahb/5w55dX4gVCnKtsrlhRv67Lf38dgRm7c/s1ydb7ccrVPr/5mLDm3Xmq5sx/92My7GwAALJgZ9HF6lOsLtznuqrshe1mzGDOhB/jV2ZzgGG96UF6dFdID/aZPbtzHjZ77HJ290gsyldBAtBPlimaQ2DFNdE21rbKXTepJWepya4r66vvmoq+mGQ4wG+f4mgU9aK9fP9sqhYInHXwFM2q2da4CIVMYJX0iNz1bKpm8NMz6vV44sBy/f32fqIbk9QDNurwhsq8HCNbPObTlUp0k97W8k9JXW8re9m1LSgzSCwALaQaB00fZ+eI21WWlHW6qQ3LrlmTufvjZCeeC3JTv9YxY684znOCqXvIutB2pluqSL3uj68eRlpMbfdH2RvkfCKByB+qKb4IiNe3fDQZlAzeSLNtijcj6vNTk49Pn4laKTr3dydJRkTln+vmX9qF8C0Q6OhibXXNi1P6VfLkfaGUOP494XW5lqxyojwrWvpnACgCwWGYQOPmyOt30F5HTTKU/y6Gcq4uoukBLQ/33XZqdH3KXOZTP3hU4V5SKqEnHKp1L9Ww1N0VU0Cx4gZIJgBpbYj84RcaUgZEKtPLm4UxEHZ/OPgXrp6ebaQLHhBLv3w+CAQCLLVHgpH8xF8wwtdVMN/WLmcNspGVz61bsyneRg5yT/Cl9PZfbrc3AhTktJ2U3K1OtFEVGZjUmCWdMVkpWKDDxA6vRdCYs2AerUy3J3WAkYPr2BJ8X36Tjy0nxUIVSY+M4df68oKtP9z2afExh+jW4kx/e8/Wx9JvSovYfhzr/oQ3oLJnlB8YAgIWxcnx83Ds9PTWz09L9m67koWtmV7NyFOjkpH91d9UvNAaeoz0/P5tH87H2u99B/Y9fw7dFWFtbM4/eiu54rTsfm1mPzmJ4WQt9od6/k4qt+9boi/6+SKMn4S5M3nZ0X5yXNUN1qgW5/Fwb6BjuBkb7dTOjBetmhJ6jf2E30L9K9zOyilsvrtvk4xtxDkN1HCzPmHNpZuNwXoP+AQ7UYdz+N6WiXitnLX1ODr4728hUbPkmX9X5EKcem5WC/LDupBjYgO7TFbeLGgDg9SQMnGbj5w6cFse4wCk5N7A4P7RDndzhahYKIrWXBpQAgNc00z5OWG7pk3kETdqD2Ld5KRM0DXEzdeZWBzPsUA8AmA8CJ7wC3bmcjMoo+nYE/Q7ltM0BwMIjcMJPbODGlUMTN6IEAIQROOEnNnCbhaGJLBkAIIzACQAAICYCJwAAgJgInAAAAGIicAIAAIgpeeDUbsnZ2Zk7DY3wq+8sbsrUdHEdvvkkAADAMkkUOOkhVc7uU7J7dCRHatpN3Q+MXXcl3Q23TE8b3atQOQAAwDJJFDh93PkiR192xB/QJCy7dyTBYemyH1bNIwAAgOUzgz5OfnPcVXcjFCiFtaV1nxJrbDkAAMBim0Hg9FF2vrhNcVkdHI1silPLz+4l9Wl8dgoAAGDRzSBw8mV1uumvgcjJ6TyugqbdL7JD1AQAAJZYosCp3Tob6Azelm7qFzPnlrudx03QpIIoOocDAIBllShwyu7tSurev91AW7LypZ9WastfT+qf7oNcmfKztl4AAACwnFaOj497p6enZvZtPD8/m0fzsfa730b4x6/he0mtra2ZRwAAAJPNtI8TAADAe0bgBAAAEBOBEwAAQEwETgAAADEROAEAAMRE4AQAABATgRMAAEBMBE4AAAAxJQ+cnLHozJ3BR42nElX+xpqFFVlZKUjTzL+JZkHVQddjRQpvWhEAADBJosDp8frCjEV3JEdq2k3dh8aiiypfBLlaTxp5M/NWcjXp9XrSe/OKjNOR6vYbB5cAACyARIHTx50vcvRlR/wBTcKiyhdKpyrbJuszKgPlZqbMtF1VoYRhskVepsh73na1/wxHaP1CdcpApCkFb11n/WlDmEnr+2XO4n72y9TPOS+WFG/rsu+tv7It4cObXL/gOelUt93neOfQO3/VwPkPnl9HnOP3nkOABwCYnxn0cXqU6wu3Ke6quyF7WbO4L6p8EaigwLKlrLM+erItKQUu3vrCX1LlTpmeyrZY3sU7VxO7knEfKzqDNZg50sFCcH3bOleBiCmMoVkoiWWbfTvrl6YKniavn5NaryF5yYi1rmbXLfUoIxW7pkqU9Inc9GypZPLSMOv3ejdyktaFrqj6eefktmip55Xd55U35cEtdMrqRf/824fnUgkcXtLjBwBgVmYQOH2UnS9uU1xW2iOa4qLKF0EgUNBUsPDt0JZLNyUi36UhN8FIQV3sG2ppvEt3Ry7tQ/kWWD99cqMCgMD+JlL7r99K0fIzLpaOuu5+DGRlxomzvg6eyiogUeVOABkOjCaLX79MRQWPNXPUuVzo+PMN/3ykN7fU6v2wNeb29THowCrueQUAYHozCJx8WZ1O+mt8ZBRVjjEyFbFNtqU/3ZxI7NgmzvrN71J3HtTl+7TJnKT1izLv7QMAEFOiwKndOgtlkNpqppv6xcxFly+OWyl+DfaraUrl3JLPzpU5JwdSGurT810tDWY2+hkS3Sdo3w1BXGnZlGKo6UmvXxjqJzROTooDTVfTibG+7me0L6YpzharNPjrPnUMW3fiJ4HU8/tNmUnrFyXu9unjBACYv0SBU3ZvV1L35lYDampLVr7s+F3Bo8oXge6/tF/PS0P3WzJNQSsrJbG++RmNXM00YwXLi37YlD4py1bRcst0U5fpz+MFH7maG4yE1re95jD9izWzXAVc9X3zONDHKn3ybWD9cHmUies7QZMO9Exg1Kw4/a90PYLBU+5gy28u00FWIOMzuX4moFH70OfELQ8EjWb//f2Z+eD5S3r8AADMysrx8XHv9PTUzL6N5+dn82g+1n73g7U/fn00j1xra2vmEQAAwGQz7eMEAADwnhE4AQAAxETgtNQGbgw5NNFRGgCAWSJwWmrevYvGTdzTCACAWSJwAgAAiInACQAAICYCJwAAgJgInBBfszBwR/EFs+j1AwAsveSBU7vVvzP42dgRfNvSUuUX1+GbT0Jf65fj129OPft3No87XEyAviO4+bXf9tQrR0taP/d1mE/dPN4+3Gm4jrp86sAvcF796ZXfT4E6zKb+aiICBrCgEgVOj9cXcnafkt2jIzlS027qPjQ2nafdupdUdl1SZh6+XK0njbyZWVTq4lay7P6v9aaurx6/r2T1B+ot21+nD7wmSVo/b/25vhB6fMNGv469njfkjk+/F2rT/gwyV3PqnW9421VTQ2T/NQMPXQdnvy84f6Pqb1ckY4rj0cMWcesNAK8jUeD0ceeLHH3ZkUmjz+ng6j71SXYWcWzfRaKDi/437sGLwMD9moYuioHx7pxMhnn+DC+eW5v+VT5XG7zoB/e/ItuFgpr8fXcubTkMjv1XPBT7craZnST10xfvm8EoZoY61W21332p1/f7dQi9NpMyNqasUA28P2KM05ex1s0jVyjbFVzf277Z77jMW2j9QnXKQCXq/etRz9Nl6RO56UeQ/rrOav1zZfbv/N1YUryty763/aFs3uT9B4/Zfa3UfHAsRzU/+fzHPT4A78EM+jg9yvWF21R31d2QvaxZrLVbzrJFG9h38agPfT04cP8btyWlwIdzs6AHBfa/kdtWKfTh3CxYYpe9cj0gsbpI5xvSmzp9MUauaAbZHdME1qwE9t+TsjqeW1M0zp39YB7NwBzqN0vpkxu134bk9Wti6hB6bSZlbExGpl703x/24blUBq7N/cGh9VSy5FsgENSBQTAj19MDWnvvH7V9u+Lnd3TWa7AeOpgIrm9b585A0HFFvX81t/7qfWvmffpeZercSUacWHDdUo8yUrHNPcp0kNWzpZLJS8NsfzCbF7V/75j1wNKWXXafV94U5x0a4/zHOT4A78cMAqePsvPFbarL6r5Mgaa69l9PIk9tt//T1YM8PVyNbMpD4EKgqYvBt0Nb3KRMU77Xb6Vo+RdGS1+17n6YwEqV31Wk2F9ZXWimbuqIkpaTG31R0EGZrsNAgJI7EPV1v1+/fVUfe1ZBWyyLXr/k8g3//ZHe3FIvfzhCDDV16cCon7V0mwhDGTUVDDTU0niX9o5c2oehQMwNBOPeXDXq/ety668DpFF08GReW+cLxnAz53jx9q9lKio49N4XuVzo+Maf//jbB/A+zCBw8mV1uukvPzLK7rkBlTPtrsvq+m44I4V4MupC710UvenGb/qat2bBC0TMncobWxJOGA3cwTyY0Rhja6ApKYl51G+pOVkkkYHY6u3Efv+q12lcQNv8brJRdfk+7Us377+fN/77BPC6EgVO7dZZOMOkZropOjNNT31j/RrsN9GUyrkln51P3pwURzTN+HJysGW7zQpGs1KccVNU+Bu1bgryM1zBwGW09Gcr1KepWTkXyz04n+lL8rJftSWrXyyJ6vfaOnJ5LuJ2+1LvDykNHL/OQh2oEl8/g6L7DO0HG8zSsinFgfef7tMT95xGvX9HGejsrc/9vpimOBX0lgb7gqk6bt35gaJ+fr+p+yX7n8a8tw9g4RwfH/f+/PPPF07/1/vf//mt99tvZvr3f0Y858/e//3v//Sf8+//DJc/Pj7Oder9pj5vzTRU9sYaeemJ5HuNRl79qx/rKdOrqK+wPrtXyXhlZspU1FLDrvQygbJMpdLL59VlZsbsSn6gXi73GAJTsG5G8DmZERuxKxlVps6DmX+Jl9bP3ffAcwbOX5L6De1fTf45GPHa6smrY+B94VRpwnxwCle/0cuHygffX8Fy/73ob2OwjsH1I+rvmPD+HVP//rnul5t9Dh6/J7Sdwddp0t/P4LnRU+D4Bvc3cv+Ttg/gvVnRgdPp6an6W387z8/P5tF8rP3ud07/49fwvaTW1tbMo/dE/zpJxjd7vFCnWpDLz7Up+pfEpTMMlpwf2ol+3bbo9QMALL+Z9nHC23N/Wm1++j7jfjzpk3kEJdqD2Ld5KSfc+KLXDwCw/Aic3hnnp9VeB9Wl+eWY7rwd91dab2HR6wcAeC0ETgAAADEROAEAAMRE4AQAABATgRMAAEBMBE4AAAAxETgBAADElDxwarfcQXz1NDSCb1taXpkztdQSAACA5ZQocHq8vpCz+5TsmoF8d1P3obHrHKtZf6Dfoz1hjF8AALCsEgVOH3e+yNGXHfEHNAEAAHi/ZtDH6VGuL9ymuKvuhuwNppSe2n5T3cW1ejYAAMBymkHg9FF2vrhNcVndpynUVJeVvX4znZo2unI11JYHAACwHGYQOPmyOt3014TAKPtBVs1DAACAZZMocGq3zkIZpraa6aZ+MXNu+cW13zj3eH0fKgcAAFgmK8fHx73T01MzOy3dv+lKHrpmVv+CbqCTkw6e2k9mZkS59vz8bB7Nx9rvfvf1P34N97JaW1szjwAAACZLGDjNBoETAABYBjPt4wQAAPCeETgBAADEROAEAAAQE4ETAABATAROAAAAMRE4AQAAxETgBAAAEBOB08LoSHW7IM1OVQrVjlkGAAAWSfLAqd2Ss7Mzdxo3gO/jtVx4z7m4lvAtKOF6EFssWX+wRTbTZll8zcKKrKyYqdCUTrUgTvzVLDjL1CLMRFMK5hyHmeXbVRUCLxjzHoh6H+j30OK/T8ad/wRinp9l9zavr/5C6J5bZ3rPJxg/jUSB0+P1hZzdp2T36EiO1LSbug+NXefQgdVVVzbMc46+7Ih/H2/0dX6IHH4WUf9Y62ZZTPoDsWTZ0uv1nMm2SmIV79zCXE3sSsZ9/NMy2Twzl0xOar2G5M2cb10sfZq3NmX6sHfO1HvAeW80hmsdlKv1pJYzMwtr3PlPIOb5eTuzef++zeublpMb/bmkXrN8QxryfUZ/h8DbSRQ4fdz5EhEItaXlBFZ7MjxCHTxOtsgqSr1oqYCnLkVrRbZjN9c11UdRQ25O/Mt1+uRGfVDdSGCRCsiqsu196xvMinQCZWoa3LeXzdLLO9XtEdsIfqtUH/BDWS6TJfCmfoGXPSiYcn/d8PbHra94+6qOOT7n2Cwp3tZl3ytf2XazcbEF9z9u3bRsbolkBqPegXMRPJdmgVs+rv6OCcc/C945V9PoTU94fV+l/lHnf87nJ+LvYzxTr6j396Ttx3j/Rv59Rr6+/jacqVAdCNSSn99OtSRykJPcgcj3Gb88wGubQR8nPdCv2wx31d2Q0Bi+j/+IrIrYXjPdWUuFUhikvwnqb7uZii2NfEYqdi8UCE2kM1UxUlT1oi1lLyN1eC6V0IfXppTVPr2MVdn+Gvpg9up3qwM7u+w+r7wpD6a8WbDELpv1bUtK+3XnWLxvt81CSa1nytWkM2Luh6/JHtTv3PKGyH5JbUs/59CWS1OH8esrOlug6jb2+NInctOzpZLJS8OUDwWVE+mgIbj/str/vtRNadC6k3IaMJDx885lX1T9lYnHPwsRGZeJr+/c6x99/ud+fiL+PsaL9/6euP0Y79+ov8+o11cHW+GM9bkK1Eyhkvz8duTyfEvHTaouKnIqDQbWwHKZQeD0UXa+uM1wWZ1hCkZGf3fl6UH9+WZNM91uSu7H9YPCXOUbNfUx7kpvbsndj+BH1w/1wel/o1TXxZH0xbLnRUM59e3RedCU73cVKfY3fiLfQk2Dqrx+62TRvO1b+lP57of/4Zkv9y8EmcPPA01dMdZXJh9fAp1LdZH7FrhQqYuhXZFRjZ860xc74B0wvv7xjn9+ol5f19zqH3n+X+P8xPv7GGvi+1tLuH1j9N9nFBXU2IfyLfC+dTPW3us5g/PrvIZFs72cFENBI7B8ZhA4+bI63fTXQGCUWhfLy0J9/Cir8g+dwwc4aXL1aam/Me6bD6nYzQHpTRG7/93yBdQ3+q9+tsD5RlnZMmUvoy+cIZmK8y3b274z3ZzE7wuUdP1lt2DHP/T6Rpl3/ee6/dn/fYTNe/szkPD8di7PnW4IfuBVl3MiJyyxRIFTu3UWyjC11Uw39YuZU7J7kk09yWM/UvpbuvIvOocP8FLt+UZPGnk3JR8/c6G+wVmlgUBLN2/E7cdjfs1n5nSfiq9ex/JYcnKwdR74Bqn2XQp+ZdbfMAebBqeRdH1N9z+6Ez8JUhjRD2eM9Gexzivqe7evWSmK+s49lX4GRvdZmSqlMIvjTyLq9Y2SsP6R53/e5yfp30eUONtP8P6NpLYtxYHzp/s0eZ8fSc+vm9EKB162HNqXM6o/8AaOj497f/755wun/+v97//81vvtNzP9+z8jnvOf3r+98t/+p/e//zdY/mfv8fFxrlPvN/W3aqahsgVhV/K9im33KvlKT33ITE3FXT31cvYnFYR5BWZZRm0/OO8/x65k+stEVD2cefP8XqOX75d5k1fmCT8nn8/3MqEnqOPKBNdXU0YfZ2A9XRlTN72uWydvP+PWVwaPZ8TxOQLL9TEGiyLZlV6mv66uX8Wtd2gHkwTPj9q3qcvI+o6s/4TjjzRi3dD6UeXahNd37vVXIs//PM+P3v2kv49J4r2/Y20/cF7D79/wa+NOwXXjvL6Dzxk8tpee34H3/dhlwHJZ0YHT6empeh+/nefnZ/NoPtZ+93Ncf/wabihcW1szj95Ws1AQKVpSqmzKzev/ZnimdGfTyubNEvy0HS/B6wvgZzbTPk54uVytJjn9C5qlvBrppsFA51G7zEX1XeH1BQAPgRNmwLvJnZm4qr4zvL4A4CFwAgAAiInACQAAICYCJwAAgJgInAAAAGIicAIAAIiJwAm+ZmHs6OkLYdHrBwB495IHTu2WnJ2duVNoAN9Hub4wywMTY/y+gB5iwdxDZ2TgEFUegzdeXn1fbyfucC2D9FANU4yzN4XE9Quco9nXL3yfo3kcPwBgMSQKnB6vL+TsPiW7R0dypKbd1P1AYLQqWVPmlK+nzHJMJVdz75/TyJsFA6LKo6igomTZ/fv0DG9GBwaF0HhhozQLJbEaFZn5EKWR9Yugx4crWf3xssr21xcGhqM1C2rbZXfb7vYtMmMA8E4lCpw+7nyRoy87Ywbt/Sg7X/Yka+Z0BurxKSUf/AXoG8hYFApqet0r79amP6hwrnYj/TGGddCxYknxti77pn6jMj56GI6S9U1O+qOVztbY+jkmn7/OpS2H3/zR3HPFQ7FnODq7HqQ5eE/I3MELA1gAwMKbQR8nv0nuqrshe+MCo8dHeUp9CARS6GtWwhkLqU89+n4iuaJYpdEBkehhYHq2VDJ5aZj69XoDgUuz4AzDcROOZmZnUv20F5y/O/vBPJq1phRKKtDk5toA8C7NIHDSmSW3KS4r7bF9mB4fnyRFumm03IGI03fHnfbvVCDwqsNaeENqlMW2JgQoYzS/10Xq+279raLUi7Nuqoqo35ufP4/u41USK5DdAgC8LzMInHxZnW76a1TkRDPdZDmp9bM5airbYr1iU12z4AUiph6NLZkmIaObqvp1tyuSr9gzHQQ2un7Tn78ta8Ztik7ncxU02YPNiACA9yRR4NRuhX8l11Yz3dQvZi6AZrqJ/MDgrdxK0cnkmGmoqSktm1t38sOrow4StqsyVZWdwOKlvzibXL+o85f+bIX6NDUr52J9HohuEtTP+cWf0/ncBE1qW6/cRQ0A8EoSBU7ZvV1J3fu3Gmir0OjLznBXcZrpogwHBn5TU6Djc//n+GrqBy5R5dG8jJFdyUvFVo9vhpuacgdbfh33RRojnqM7iI9rquv8uFP/z0v5BemY6PpNOn9K+kQObKtf7nRiH6jGy+vXFN1SKbdFsbz9q9cBAPA+rRwfH/dOT0/N7Nt4fn42j+Zj7Xc/mPvj10fzyLW2tmYeoVMtyOXn2hyamnRwZ8n5oZ2oA/mi1w8A8P7NtI8Tllv6ZB5BifYg9u3Lsk1Bi14/AMD7R+CEV6A7b9fU/xfVotcPALAoCJwAAABiInACAACIicAJAAAgJgInAACAmAicAAAAYiJwgo87Xs8X5xcAll7ywKnd6t85/GzECL96WBav/OI6fPNJGGa4Dz291YXVGTakf+fxlw4Bowe5femwKosqcGd2PUW+QPr5BXUmwuZ7ftXyaYfAAQC8SKLA6fH6Qs7uU7J7dCRHatpN3YfGrtNB1X1q1ynT00b3v0LsNEKu5g5O28ibBa9MBW4ly+4PkvvSajQLJbEaFdky84tjdDATT1pObvR5aUg+35CGfJ+8nWZFilsH4XtCRZ7fePUbf35zUjw8l8rLDhAAMIVEgdPHnS9y9GVHhkencz3+05XUv/zSX1Ii3b/NDGJxMhUDWQZvmc5+OOPDmWyI85xA9io6O+Lb2vTvmp2rDY7wH866bBcKagpvW9fDGQNu3SyYCTfDsqL25/y7ooIL7/iCGZZOVbZN3Zz6BTMyTpklxdu67PefM33Gp1MtiRzkJHcg8n3CaW1+v5NKeIRkx9jzG7N+Uec3/flQ7kpknQBg3mbQx+lRri/cprir7obsBcby/bjzKTQI8GA5ouUO8iL5RmgMNT3orc5a5NWFPH1y4z5u9Nzn6OyVXpCphAe6nSRXFKs0IaBoqm2V3WyJnspSl1tT5FDBjGWX5zDOm76jd0Py9Tu1fbXvhsi+HsBX1cE+tOWyX9dNKetyr372V/840idy07OlkslLw5T3eoOBYZSOXJ5v6bhJvyAiYwMUPeDvlgRiJNek8xunfnHOb/qzHIotD2YWADAfMwicPsrOF7cpLivtcFPd46PIhlvmNuX9o56Bqaxbkrn74VyonUyTk+nRF+iMWCb7oIOrev9i3pFqqS758onEjw285qiy2NaIC7wOFpy+Oe60fxcOyprf6yL1fbfcKkq9aM22r1a+3A8kMoefRxzXDyk59Tb1U9WZqc6lCtSKpvlNN4sFg7aAzg+5y1gynBSKOL8R4p/fO/kxxXYBANObQeDky+p00l9+aPT42BX5xcwoH//VDRYjDieTcK4u1CpYEtPHxrlAH8pnL4LIFaUiatIXU3WRP9dzMZNNWrPgXch1hkdd4BtbYodSF2a5N5VtsQJXbp0B65fZFclXbImb7EpOBYpfbSkH6mdXZtvLqnN57gQrXmBmFetyPjJyGi36/E72tucXABCUKHDSv5gLZpjaaqabCkRKmIG0bG7dqmDge7+PTenrudxubQYyL2k5KbtZp2qlKDIyKzPJrRQDGZuVkhUKvPwLfwKmb9Lsf3H3ICqM87M8nap8Ld6ZGY8+h4FsjK5L7F+hdeTSPnSaB/vBS8+WQ/tyeP30pmzdjmoum3x+k9UvaEQzIQBgphIFTtm93VAfprZk5cuO3xn8484H6V755foXeBZ9nAYEOl73f66upsCF02mK0/18dHSgIqet21unf1OIyToV63kpT9nXyMto2JW8VHRfoZvBZr7hC/+o/lNOR/UxTUmdHzqYmbZuunP4vjr2/X5H91u1bTf4ulN10gGd+4syy6ubpYKaipgyZxVH7mDLP4Z9kcbQMY6i96+CnHpRbd/71duoZZ6cHOSHm8uiz2+8+k06v26mcVQzIQBgllaOj497p6enZvZtPD8/m0fzsfa7H8z98Wv4fghra2vmETrVglx+rk3ZcToOHRxacn5oz6ED+YLR2aLvB9IbGVjO6/y6QVVl84YmPACYs5n2ccJyS5/M56LuNKfdTp8JW0o683c3+l5P8zu/TamcH07Vrw0A8DJknMg4AQCAmMg44SdmbrA5dnrp3cYBAO8VgRN+YgO3WRiaauoZAAD4CJwAAABiInACAACIicAJAAAgJgInAACAmJIHTu2Wf2fw0Ai/rsfri375xXX4VgAAAADLJFHg5ARF9ynZPTqSIzXtpu5DY9epJ8h/n1b75Rvdq3A5AADAEkkUOH3c+SJHX3bEv73kgL+7ktrwy7N7WZG/iJwAAMBymkEfp0e5vnCb4q66G6Jjo75fUtK9v1bPcD1e38tT95/+PAAAwDKZQeD0UXa+uE1xWWmHm+I+7sin1Se5Mn2crrqrsp4yZQAAAEtmBoGTb1RTnNOcZ/o4He39S7ryr/FNewAAAAssUeDUbp2FMkxtNdNN/WLmhrVb95Kygm15AAAAy2Pl+Pi4d3p6amanpfs3XclD18yuZuUo2Mnp8Vourh7EK06t78qXneF80/Pzs3k0H2u/+/v849dwD6u1tTXzCAAAYLKEgdNsEDgBAIBlMNM+TgAAAO8ZgRMAAEBMBE4AAAAxETgBAADEROAEAAAQE4ETAABATAROAAAAMRE4AQAAxDSjwKktrbMzubgO31zS0W45A/zqaWQ5AADAkphJ4OSMQZddl5SZ79NDrtynZNcM8rvR/a8QOwEAgGWVOHB6vL6Q+9Qn2Rkxtu/jY1dWP+2IN+BJ1lqV7iOREwAAWE7JAqd2S666GyMH7h2n2/3bPAIAAFguiQKn9l9PIk9ttw/T1YM8PVxJq20KAQAA3plEgVN2z+275Ey767K6vit7WVM4Rio1ok0PAABgCcykc/g4Hz+mQn2a2vaTpD7Gb9YDAABYJDMJnHQH8ZFNdR935EP3qn87AqcTOXETAABYUivHx8e909NTM/s2np+fzaP5WPvdj9b++DX8q761tTXzCAAAYLK5NtUBAAC8JwROAAAAMRE4AQAAxETgBAAAEBOBEwAAQEwETgAAADEROAEAAMRE4LQwOlLdLkizU5VCtWOWAQCARTKjwKktrbMzubgO31xSa7fcu4aPKkPQg9hiyfqDLbKZNsui6GBrRVZWVMBlljiaBbVMLS+Elo7nPV9NcVcZpVl44fox9//i7c/IW+9/2c3t/TGj9y8AxDGTwKndupdUdl1SZr6v3ZL71K4cZVfNAozV+SFy+FlE/WOtm2WR0nJy05B85k6+B7JUze93ksnkpVHLmSURcjXp9XrSa+TNgkEmG2bmxsnVehJ3lyGR+3e9ePuR5nx8Cy/e8Sc1t/dHzPcPAMxC4sBJj1PnjEH3i1kQlN2TLwxOF0l/E1+xilIvWmIV61K0VmR7mua6rbIc2BX3wtepynerLIdOgWK+jXvfxJ19qfnY21fb216xpHhbl33zrX5lZVtCq0/4xu/uz22C3O6vP+VFOkZGwTsuZypUw4FAaN8Dx57w+Dyh/W9XVShieOe/GqhDsDxCp7rd365T70Bd/IxiUwrestBy39jzE+f4lbHHp3hlun79+o44B3oaff6i65/MvLcP4GeSLHBqt+Squ0FwlJD+Jq6/LWcqtjTyGanYPbk5idtc58odiHxX14Nm5Vysz4GUlfo2blcyZsbfV2zpE7np2VLRGSz9rd6ZbiRUvQnf+PX+Gvk7KX21peytb1tSmiJ4mLR9TV+sS5Zt6tYT2zpXgYApdGxKWZ1Tr7xsf/UDg4THp+nAIbj/XtkWy7s463XVevWif/z24blUYl670yc36vyJ5BvmPWG2p94sYpv0TbNQEitwfLZVCgUHE89PjOOfeHyK95661YG/XTbP2ZQHUx59/ibXP6l5bx/AzyVR4NT+60nkqe30YTq7epCnhytptU0hXleuKNZ3dYGUcviivxBuZatck34rjbpYfzu05TJ25DRJRy7tQ/kWOGgdbPR6gf3JD3Xh9zMO+3WzeCaa8l0a4UBXBQoNtTR4ac43/PqkN7fk7kf8g88dqMCr5AWaHamW6pIvn4i7R7X/+q2TpfSOz9JR0d2P/vOjz88k8Y5P04F/z2uLy+Xib39i/ZOa9/YB/GwSBU7ZvSM5OjLT7rqsru/KXtYUIjanqUNdzfU39n3zIT9VU50jLScHh3JYjHe5el2ZKfptzZoKNILZLp1xqGyZsiWhguKKqElHKp1LOddzwZdZZ58Cx+dMN15gtQTmXf9lPz8AFspMOocjGa+pQzfHNPJuk8m0TXWO3MnYbFM/w6H7tEydcknL5tad9JMkus/KNE1tooLBUNuUzoJY8nkmVy5VNy+o6NN9Wrx+OubXis5yRR3/1+KdmfEkOb6cHEhpoE+QztIcxMy4xKGC4rKbdapWis6PCPxTl5PixKa/qPOjTTr+eR9fVP2Tmvf2Afx0jo+Pe3/++Wei6f/+9396v/32mzP9+z+jl/enf/8ntK6eHh8f5zr1flNfMs00VLYg7Eq+V7HtXiVf6alvxzE1enmRnnoZ1ZRXc4pd6WW8ZRlvWwPPa+SdxypQ0yv0KhmvLDD11zXMOu5k9uWIXl8Fg71KJRMqd/etRa0fp36Dz8moc2mKFDu0b68u4eckOb7w+dVTYNuB7TrHPDgfm1ePYN08I+o4xflxjD1+bcLxDZUNlsc5f5PqH7V+0u0DwHRWdOB0enqqPkvezvPzs3k0H2u/+53X//g1fD+ptbU18+htNQsFkaIlpcqm3Lyz37w7x1aL26cGAIDFRVPdgsjpwEL/wundBU26M7b5qTu/ZAIALDkCJ8yV03/L65D7zoJCAMDPh8AJAAAgJgInAACAmAicAAAAYiJwAgAAiInACQAAICYCJ8TXLIwZ3f6VvPX+k1r0+i/7+QWAVzCjwKktrbMzubgO31xS5FGuL87cQYBHlmMm9BAZZgDTeV34vPH06vt6P8HhOqahh/qIGoevI9XtgnpmWLL9u/v1ztHKyuD2VflUQ8hML1n99Tnx6z/9OIbRXu/1BYDlNpPAqd26l1R2XVJm3tNuXUl3wx8IeKN7Ja22KcTs5GrufZIaebNgxlRgVrLs/v2YhnczOtgZ1CyUxGpUZOIQu82KFLcGxkGL3H8M+UZ//V5v8C7mcx7PLGH9mwVL7LJX956UbWu2AfIszq8S6/UFgCWXOHB6vL6Q+9Qn2fnFLAjI7h3JXtbMKNkPq+YRXCYTUiiYjIgKPrzskZcBMfPehdLJDEzxrb5T3Xa3563jbV9PU1x9tzYDw8rWbvzBhPWgwSuWFG/N3cGdaThjoetRsr7JSX+03dGa3++kEhr63zV2/46BjIw6n9tTRhbpz4dyV5pf1ilJ/fVNRIP3Ds0dzD5ATnp+476+ALDskgVO7ZZcdTfky44/Ftx4bWndp8QKBFLISa3XkHz9TixbfdtviOyXLLHVt3770JZLfRXP1cSuZNynK86duKdICaRPbpwMQr7Rkxt9NdTZKb0gUxE77p28c0WxSvqiOaIJRw8T07OlkslLw2Qser2BC68K1iy77O5/oqZ8r29J4BrumrR/ramOJZiRkbrcmqK++n7/wu+P/B+Q/iyHYsuDmZ2pWdS/TwXb6j0yIrZ8uaT1i/36AsDySxQ4tf96Enlqu32Yrh7k6WFcU5zuA3UvqU87EifE+unky/1AI3P4WWZ9+dEZino/m9KRaqmudnkyxX7ScnKjL5plsa0JF9gxmt/rfuBiFaVeHNPU1PkhdxlLhpMWEfvPHaiIUy93p/27waBQB6j+hb9XtsUaWYE7+THFccWXtP4enaEsifVtmtcujmT1i/36AsA7kChw0k1xXv+lo911WV3fDTXNOdotFVipoGn3i8RKTGH2ckWpiJr0xaxzKed6boqMRbPgXUhNANLYEnuK1ExovDq7IvmKHWp6ihK9/7iBkaECgdk3do03k/o7TawqaLIHm9GSS1q/pK8vACyTmXQOH6fdOpOz+5TsHpmgSQVRdA5/mTsvFaL7FO2rb/hTSctJ2c06VStFkamzWrdSdDIRZhpqKkrL5lYgW6Mv8i/5lVp6U7ZuRzWXTd6/f+EfTfcLC/YJ61RLcmeN6owzopnQY/qGvewXY8nrr9exvSZQVZehuPAN6wcAP5OZBE66g/hwU11bdEuedB/kytyO4KytF8Cnm172pa6bOcyV8LZomYvfnbqYuRes9ElZttRy56Jm2VJu5J3nuasEOu72f06upsHAxWSdivW8lKdMWXgZBbuSl4rui3Uz3FSUO9jyL777Io0Rz3E6qk9sysnJQX64uSx6/8MX/mBTkl5f/xLNKx/ZH8fJxI1qJnR1ftyp/09/7rRk9df9vtQ/t0WxvPIRgfPb1c8X/foCwPJbOT4+7p2enprZt/H8/Gwezcfa734b4R+/hu8ltba2Zh4hSqdakMvPtZk3FYXozMn3A+mNvDDPb//6ol/ZvBnTxKSDU0vOD+1EHaDnV/9Frx8AvB8ETgROC0YHARXZvBm819I8NaWw/UOKI7JkLp0Z/C4HQ/d/WhSLXj8AeD8InAicAABATHPtHA4AAPCeEDgBAADEROAEAAAQE4ETAABATAROAAAAMRE4AQAAxDSjwEkP4nsmF9fhn/o7nLHqzJ3DGW8FAAAssZkETu3WvaSy65Iy8x5nKBZnrDp3IODd1D1j1QEAgKWVOHDSwdF96pPs/GIWBHzc+SJHX3bEv/0kAADA8koWOLVbctXdkC87k0KjR7m+cJvq9HP3smYxAADAkkkUOLX/ehJ5arv9l64e5OnhakRT3EfZ+eI21WV1Xyia6gAAwJJKFDhl99yAyJl212V1fXdiRimrC/8icgIAAMtpJp3Dx2m3zkIZpraa6aZGdIYCAABYAjMJnJxfz41oqsvu7Urq3tyKQE1tyUb0hwIAAFhcK8fHx73T01Mz+zaen5/No/lY+90P1v74NXyvqbW1NfMIAABgsrk21QEAALwnBE4AAAAxETgBAADEROAEAAAQE4ETAABATAROAAAAMRE4AQAAxETgtDA6Ut0uSLNTlUK1Y5YBAIBFMqPAqS2tszO5uA7fXNIXVQ6RB7HFkvUHW2QzbZbFoQOuFVlZMVOhaZaP05TCxOeNL28WViRy8xMkXf9n9+Lz1yz03x8j148qBwD0zSRwarfuJZVdl5SZHxRVDqXzQ+Tws4j6x1o3y2JJy8lNT3q9huTzDWnIdxX6TJKTmn6umRs2vjxX60ktZ2ZCTLbMzI0zfv1lF+/4k3rx+cvV1PtDvUcaY171qHIAQF/iwEmPU3ef+iQ7Y8bujSqHm0lYsYpSL1piFetStFZke8rmuk61JHKQk9yByPehK7jJIjnTtgxvOqJ8UkaiU5XtFUuKt3XZH7eNGBkN5xx4629XVShimHULVb2fEeUROtXt/nadcxqoi59VCx5/cLkvVL9C1Q+U4hy/Mvb4FK9M169f3xHnQE+jz190/ZOZ9/YBYHkkC5zaLbnqbowfuDeqHA6dSdDf9jMVWxr5jFTsntycTNdcd3m+peMmtTEVOZWCF2adDSmJpbbpZBV6ZbGtfamb0uhyZVJGIn0iNz1bKpm8NJz19XQjoepHZDR04FCybLOumsq2WN7FWa+r1qsXbSmbcvvwXCoxr93pkxt1TkXyDXNOzfbUyRbbpG+aheDxq+1bpVBwoIOZYP1s61wFSqYwxvFPPD7Fe/1vdeBsl81zNuXBlEefv8n1T2re2weAZZIocGr/9STy1JazszM5u3qQp4crabVNoRJVjhnpXKpgoihuGJCT4qEtl17k5JR9C1zIc1KzK5Ixc5Hlc9eU79IIB4oqUBhscsw3aub4VKyyuSV3PwZSOhPkDlTg1Q8mVaBYqku+fCLuHtX+67dOls/LqFg6Krr70X/+pX0o3wL108FYr+fXZ7J4x6fpwLnntcXlcvG3P7H+Sc17+wCwXBIFTtm9Izk6MtPuuqyu78pe1hQqUeVwOU01+3Un47BvLlLTNNV1Ls+dZj7/wlaX837kBMkVpSJq0pGKChTP9VwwKtHZJ5NN6U83XmC1BOZd/2U/PwAwQzPpHI5kvKYa3ZzUyLtNPvGb6tyMSPjCZsuhfelmBNKfxTqvhLIbzUpRvJamyPJY0rK5dSf9JJDukxO7H1JODqQ00CdIZ2kOYmZc4kjLSdnNOlXVselO+P7Z1Rm6SU1/6ti8oKtP9/kJ9mOadPzzPr6o+ic17+0DwHKZSeCkO4BPaoqLKocKf5xf03Xkh74lgVkWTV/ALSnWi2KteL/qGlymgoZvlpRMNkpPJasi+fq+6acSVa77QJmy/brU983jgcAod7DlN+fsizT6GYno9XM13a/KLHemklheSkgHIWY9pzpmXmfnpupmY7JOxXpeygNBafrkm1il4P7VFKqfPVCu+/yE+zGNP/6I43NeL72Oe0xueTAoiz5/k+sftX7S7QPAz2Xl+Pi4d3p6ambfxvPzs3k0H2u/+53T//g1fC+ptbU18+htNQsFUVdeKVU25eZ9/mYfAIClR1PdgsjVapLTv9AiaAIAYGEROAEAAMRE4AQAABATgRMAAEBMBE4AAAAxETgBAADEROAEAAAQE4ET4msWprvp5GujfgCAOZtR4NSW1tmZXFyHby7pLXcG+XWmllqCZMydpsdegaPKX8YbT8+9s3TwztYx6Tt+e3ednkP08L7rZ17T/uTdJR4A8NpmEji1W/eSyq5LysyHrGb9gX6P9oQxfpPKSa3XkLyZGxZV/gIqqChZdn8svMaUG+9Ut2WlZPXH07Ot0mwzL++8fo58o79+r1eb0Th3AIBpJQ6c9Dh096lPsvOLWYDpdaqyHcgobA+lI4IZh1HZivHlTlBgypztvjCzsrUZGBa3Fh6nLTTemd5PoaAmf9vpk5u5j6b/nusHAFgcyQKndkuuuhvyZccfC27IU9tvqru4lsHGPGibUra9bEJPPf4aCH70RVUPKuuV6wFj96VuSqPKdVCgMxz5Rk9u9NU6V5OeXpCpiB13eJdc0QzyOqaJqam2Vfb2r+qv9n5rinx+cGDZZZnpyDI/Q/30oMsmsGKAXQB4O4kCp/ZfT35gdPUgTw9X0gp1YsrKXr+ZTk0bXbkKPwGOH1IKjJ6/70dF6np+Kfbht0CGIic1uyIZMxdZruQO8lIvBUbDL9UlX54mw5KWkxt9UfdG+R8IAHIHIt6o+rr+d6OCMm8bPWnI/ow7Sb/3+unmV7duzlS2xSIjBQBvIlHglN0LBEW767K6vit7kzoxZT/IqnkIjwpkvtpSDlwY7cqWKZuRXFEqoiZ9rVWB1rmemyKj0ix4F3pzAW9sif3gFBnTXdhztYbI99ld+H+2+ulA6yXdpAAAyc2kc/g47Vb4l3aP1/fSTdEZKuxB1GVS1s2c7u/0tXhnZpT0Z7HOK6FfUTUrRb8pJ6rckZaTspt1qqoyOfyslkzjVoqBjJjuSB0MvPzAYDT9i7JgHNAs7Mud1T9il+l7Ndy/K473X7/gfjvV0nD9AACvYiaBk+4gPqqpTmekNrpX/T5Okf2hfko5KR6ei+VdVC1bDiuiLrTexVQFPd8sKXnlaipZFcnrPi/O1T6q3DBZp2I9L+Vwz+RIuZqbCbEreanovlRDHamHA4NgU1OupkJDp4+PO+1Lw+1vFdD5oYPF6eumvf/66X5vVr9c98EarB8A4HWsHB8f905PT83s23h+fjaP5mPtdz9Y++PXcPf0tbU18whROtWCXH6uDfwibBZ0x2xLzg/tRAHBz1s/AMBrIXAicFoA+nYK3+VgYe9PtOj1AwC8lrn2cQLi0Z2jFzkoWfT6AQBeC4ETAABATAROAAAAMRE4AQAAxETgBAAAEBOBEwAAQEwETgAAADHNKHBqS+ssPLxKyOO1XJi7h59dXMuYZwEAACy0mQRO7da9pLLrkjLzIe2WnF11ZcMbDPjLjjDoCgAAWEaJAyc9Tt196pPsjBy7ty2t+5TsHu1J1iwBAABYVskCp3Zr8sC9j/+IrIrYXjPdWUuFUgAAAMspUeDU/utJ5KntBkVXD/L0cCWtYGT0d1ctexDJmma63ZTch54AAACwPBIFTtk9ExA5QdG6rK7vyt5gm1xqXSxv2cePsir/0DkcAAAspZl0Dh8ruyfZ1JM89iOlv6Ur/6JzOAAAWEozCZx0B/GRTXVKdm9DuldeH6d7SfXTTwAAAMtl5fj4uHd6empm38bz87N5NB9rv/s5rj9+DTcUrq2tmUcAAACTzbepDgAA4B0hcAIAAIiJwAkAACAmAicAAICYCJwAAABiInACAACIicAJAAAgJgKnhdGR6nZBmp2qFKodswwAACySGQVObWmdncnFdfDmko9yfeHdMdyfGON3nAexxZL1B1tkM22WxdcsrMjKipkKBSkUmqZk/tx9q6DPzC+2phScczTD2jYL/XM/l9Mec/v6dXjFl/2FZnz+++fGe//pLyDuudrmCwiAOZhJ4NRu3Usquy4pM+9blaw3CLCadteHnwGj80Pk8LOI+sdaN8ti6lS3pWTZ0uv1nMm27qRuylwmm2XmZi1X60kjb2YWXk5qvYbMtLq5mnvu53USYm5fvw61nJlZWDM+//rcqPOSqRTVlrW0nHyrSL5iy83J9F9AACBK4sBJj1N3n/okO7+YBX0fZefLnvgj0z3K41NKPjBU3RAnY2MVpV60xCrWpWgl+7acPrmRnncF7VRle8WS4m1d9k3WYmVlWwY3H8pYbVdVqBUWzmhVxwZiOojzn2ee4dTBX3/42PwsgZM5MFkEPylhshTeNHW2Irj+8LEn336EyONPKDIjNeH8eo+rgToOvf4Lfv5V8FS2v5rtqm2pLxEHBE0A5iRZ4NRuyVV3Q77s+GPBjfX4KE+pD4FACh6dKXC/NdvSyGekYvem+rasA6WybY2+8KRP5KZnSyWTl4bJSPV6NxLcvA6KghmrXtkWK7CN4YzWuQrETOEomYrY+rn99Memqp/Ztpr8i5yrWbDELptydRyl/bpzLrzVm4WSWIH1bas0xcVVBw3B9ctq/f1QRi7Z9uOYfPyJRWSkJp5fk7GpF20pm/rZh+dSCRz+Mpz/XE1vVzdR623VTPYJAGYvUeDU/utJ5Knt9l+6epCnh6uxfZgeH58kRbppbpzg60UXnqZ8l0Y4UFMX04Za6m6hI5f2oXwLlDsZrd7gxelOStsr6qJVlt7NiYTDvh8q8PIzCuq6HaD2f1eRorcxFeh9q2TMjKbK67dOFs5b39JR292PgazIGJ1LFQh8CwSKOanZFfH3kHD7sUw6/nmLOr+ufMN/PdObW+rwvaNflvOvtttQq1nBfQHA7CUKnLJ7fv+lo911WV3flb2RsRHNdJM4zWDqanpbtNRF1b2IJGuqK0t+phf+OG5l61BdEOtewOXpSPWrn81wArvKlikbTV+4Q7wMVnAaCs4SmOv2pz/+eRs6v1GW+vwDwGzNpHN4pEea6SbxmuryDd3J2m1Si99Up5tCBvqNmI7m/hbSsrl1J34SoRDox5KTAykNNB015bta6mYg1LpSDDXd6PLCUF+VvBycnMiN+ta/H+ojY34taOZ0f5+vxTszo6n9b53LZX8FdTylYEomJ8WBpqOppD+LdV4JBXPNSlGFeZ6E248UdfzzFnV+oyz7+QeA2ZpJ4KQ7iE9qqqOZLpqOdaz1jvwIXmTj2hI5DzR1rIzoHJs72PKbQ/ZFGoFv9G7/kMD6KyWx+m07ulxd+ksD5bbfT0pnzLzmp+Z39eC2KJZ6ntta6F4Y9byzrqrbYUVUXfzAK7x/S+ytcF+d9Mm3gf2raUQH9tH0r6wsKQXWLVkVydf3+82ZybavA1ezjjoJ9f3B9aOPf7Ko7UeVR5xfHUSb9ZzTYeZ19tNr7V3s86+ZzuWm3qM7oAPAbKwcHx/3Tk9PzezbeH5+No/mY+13v/P6H78G7zWlytbWzKO31SwU9NVUSpVNuVn835TPle6MXtm8WYKf1i8nzi8AvNzrNNUhUq5Wk5z+BdxPeTULZE3UpDuYc1GfJc4vAMwKgRMWQFpObgIdg7mqzxjnFwBmhcAJAAAgJgInAACAmAicAAAAYiJwAgAAiInACQAAICYCJ/iahTGj6+OnwOsPAJFmFDi1pXV2JhfX4ZtLau3WmTsI8JhyLAZvvDz3ztMvuPOyvuO0uU/QtCPbIx79GiU/tfqeToXQECha4tff4d7Be3icRbV8qjuBA8Dimkng1G7dSyq7Likz39duyX1qtz8Q8Eb3v0LstIBU0FOy7P59fhrhEU8i6TtRr5Ss/kCttlUiczGV0cHMID2mYeJbMDUrUtzyxiE0Il//ePVrFkpiNSp6BKABjEcH4P1IHDjpceruU59k5xezIODxn66k/uUPd/KLiqy6f5sZBITv7LxdKKjJvco4mYCBb/HeMp3ZcYIWbz39nBdmfrY2/bHtcjV/HDrX+Ppp6ZObuY1mH+/4zFhlQ8t9/XPmlFdjBQK+ycevhbY/kF0Jvob94/Ge06nK9oolxdu67HvrD2Z8Asc8+iWNPn5P8/udVALjEHrGvv5x6qfo4ypZ3+RkzECL6c+Hclci6wRg+SULnNotuepuyJcdPzgK+rjzSVL3flOdfu4eY/0Oa1bELpu7OqupLPX+6PG5A/X1P9+Qm0AkozMPOiuQP8g5QYvzuNFzn5OrSU8vyKhtxk1P5IpmkNUxTTQT6ufzg4tZDukR5/icTIft109nvILBg3tR9zMqtnWuAgFTGEfE8evAKLj9XtkWK7B//XrpOusBaPW5cZ+zKQ+6UA+z07OlkslLw1u/NxC46mPWy/VxjxB1/L6mfK9vSSBGck16/ePUTwV2+riC79Eh6c9yKLZ7zACwxBIFTu2/nkSe2m5gdPUgTw9X0mqbQu3xUWTDbabT027qHwkWw8gdiPo6b77Nr8j+XSDoWbckc/fD+abuZC6cC6K+AGbEMt/udXBV73+bVwFMqS758jQZIG9IDm8U/YEL6KT69fnDejRkf6ZNdZOPT5+LWyn2R/9XgZuOisw508+/tA/lW+Ci7mTIerVwc9UkE49f7V8dcShoUIFOQy0dPAWZigquvPVyufj7nyjq+AM6P+QuY8lwUiji9Y/Q/F4Xqe+7+7eKUlcB4ujX/05+TLFdAFhEiQKn7J4fFB3trsvq+m4oo/T42BUJNOF9/FdX/iJyGiEntf63eTUFMxbON/Vzuey4F2jnguxcAA/ls3etzhWlImrSq3Qu1bPV3BRX5WbBu1CaejS2xA6lBibUb4RcrSHyfXz51KKOT2efgvXT00ybDqc7/leX8PijX//JnIyat1+7InkVIA7F1QDwTsykcziS8S9co6Rlc+tW7Mp3kYOck/wofT2X263NwIUxLSdlNytTrRRFDj9PGTSEMxa6o3cwMJlcP10e7nvTLOzLnZcO85h+OsO/uIpj0vFFdTxW588Luvp0n6D4WZXJx5+TAykNlOsgd6AD9kT6NQ5kY/S5iv0rtCk6Xqc3Zet2VHPZ5Nc/Wf2CRjQTAsCSmUngpDuIj2qq+7jzQbpXfh+ns/uUWPRxGmH4whVsCnOaqup3btOcipy2bm+d/k0hJitTrOelPKmvyQhexsCu5KWi+8oMZSsi6lezTR8Zd9ofbLpSOj/u1P+nr1vfhONLn3wL7d+ZAhf2wfqtrOg+QYMd4CeJOn6vicub1Pb7kYfpuL1fd/o4ueXDgVjuYMvfx75Io/8aBDqm928XoKbA8UUdv08Fefnh5rLo139S/XxOx/dxTXVOpnBUMyEALJeV4+Pj3unpqZl9G8/Pz+bRfKz97nde/+PX8P0Q1tbWzCN0qgW5/FybIqCIS1/8LTk/tCd3IMb86WzR9wO/r1XA/F5/N6iqbN7QhAdg6dFUh770yXwumiIPYt8myDZhdnTm7m6447o2v9e/KZXzw6n63QHAoiLjRMYJAADERMYJP7GBG0cOTdPcJBMA8DMgcMJPbOA2A0PTFPd6AgD8FAicAAAAYiJwAgAAiInACQAAICYCJwAAgJhmFDi1pXV2JhfX4Z/6a85dxc2dw0eVAwAALIuZBE7t1r2ksuuSMvN9j9fy36dV2TUDAW90w0OyAAAALJPEgZPOKN2nPsnOL2ZB0N9dSW3siHf7yexeVuQvIicAALCckgVO7ZZcdTfky45/Z+6QX1LSvb8Wr4Hu8fpenrr/9OcBAACWSaLAqf3Xk8hT2+3DdPUgTw8DTXEfd+TT6pNcmT5OV91VWR9qzwMAAFgOsxur7vFaWo8fZW9c9snRllZLZE832QUwVh0AAFgGM/pVXTxOJ3IrHDQBAAAsi5kETs4tB0Y11T1ey4VpptOT04l8UkIKAABggc2uqS4BmuoAAMAyeNWmOgAAgGVG4AQAABATgRMAAEBMBE4AAAAxETgBAADEROAEAAAQE4ETAABATAROP5NmQQpN8/g9euvje+/nFwCQNHBqSytwZ/Czs5ZaMqDd6pdfXIdvPonX0yysyMp+Xer76t+Vbal2TME7MZvja0phZUW2J67ckep2QT0zLNn+3f2u9KfB7avy7araMwDgrSXPOK1m5ejoyEx7EhqJTg+5cp+SXVO+0f2vEDu9gWZBSpYtvV7PmRp5s/y9iDy+0cHOoGahJFajIltmfqRmRYpbB5Izs45ZnN98o79+r1cLb1/NFQ/PpUI2CwDe3Fyb6h4fu7L6aUe8AU+y1qp0H4mchukLu59x2C4U1OReJZ1Mhl4WSGF4y1amaBfa2kybR+oyXLuRE3/WufB7++5PoW0PZEQG9husY6e67T5nIEPSr/OIslkYe3ydqmyvWFK8rcu+t/8RGSFd75L1TU7WzYIxmt/vpFIMhzXaxPM74fWNK/35UO5KZJ0A4K0lD5ye2n5T3cW1RIVF3e7f5hH6mhWxy162oSdlqcutKcod5J1sxE3gSpyruVmN/MHwBXykXFGs0uiAwZNvePtvSF7916j523YyMbZfP9sqhYInXZ+eqtBt0VLPK7vPK2/KgynXQVMwI9Mr22JNGThMNOn40idy07OlklHH5O2/Nxw46noHz/FoTfle35JAjOSKOr8TXt+++r4TVI0NLNOf5VDs/jkFALyNhIFTVvb6zXRq2ujKVWuolxOi5A5EnL4x7rR/py60XuCybknm7odzIXWyNk7AoS/gGbEisiO+tJzc6It2WQU9eh8DF/hcTdzd6cySDpKCTUV6X7dSdNZzJ6uoLvumTkGZigqOvHrncmYban0JB356fw21dHahU8TxRWh+r/uBi1WUugoAR8Z1nR9yl7Fk+LRHnd8Jr68jJ7V+UKemsYHlnfyY4rgAALM326a67AdZNQ/HSaV+MY/gm3DhdDIN53LZcQMQJ+BwLuCH8jkqQWI0C96F3OynsSX2UOrCC5oGm5mUjLrQB+unp5sTFS4shnjHN56TMfOOy65IXgWAobgmQvT+4wZGhgq03ls3NAB4LxIFTu1W+Jdyj9f30g0ERh8/pkJ9mtr2k6Q+ej2e4PEvvKOkZXPrVuzKd5GDnJO8KH09l9utzSkCl3DGaKVkSbibzmDQpOb7F/akHZNzciClgePTQeBwB2tdt8m/aBsn6vj0OQxka/S+XtLPKr0pW7ejmssm73/y66vLw8fdqZbkbmQ6cUQzIQDgVSUKnLJ7+pdyV/0+TlfdDfmyEwiMPu7Ih0D5feqTBIvhGb7wBptydD+nev3ObZpTkdPW7W38/k2Kl1GxK3mp6L5KA9kifaHWvW78OuyreV/65JvpwxOY+oGH6Ti+r7ZQtEx5OFDI1bwmLG9SQdpAB+vOjzv1/7yUI/sZDYs6Pi13sOUf375IY8RznI7tk5rqdBCYH24ui95/xOur1i/b3rlbGd3fqnMp5zKqmRAA8JpWjo+Pe6enp2b2bTw/P5tH87H2ux+t/fFruPv62tqaefT+daoFufxcG26Ke3P6V2eWnB/aMTpoj/cqx6ezVd8P/L5cAfPcvw7qKps3UzUhAgBmj8DpJwqcFpfOWn2Xg6H7Fy0iHeRVZPPmNeuqzs/2DykuUL8yAPhZETgROAEAgJhm+6s6AACAd4zACQAAICYCJwAAgJgInAAAAGIicAIAAIiJwAkAACCmhIFTW1rmruDu1FJLwvSwLLosODQLAADAMkqecVrNytHRkZn2JGsWO9otuU/tylE2auhfAACAxTffprrsXnjsOgAAgCWWPHB6avtNdRfXQoMcAAB4rxIGTlnZ6zfTqWmjK1etwV5OAAAA78Nsm+qyH4TeTAAA4L1KFDjpX8wFfy33eH0v3dQvZg4AAOB9WTk+Pu6dnp6a2enp4Kn9ZGb0L+z2/N/VPV5fyNVD18wZA8/Rnp+fzaP5WPvd76D+x6/hXlhra2vmEQAAwGSJA6dZIHACAADLYL63IwAAAHhHCJwAAABiInACAACIicAJAAAgJgInAACAmAicAAAAYiJwAgAAiInAaWF0pLpdkGanKoVqxyxbNvoYtmVpqw8AQISEgVNbWmdnctafWmpJ0KNcX/jlweFZMOhBbLFk/cEW2UybZfF0qtuysrISmrZfPXrRQZMldvlGTqar/tJoFlak0DQzb6YpBf0av31FflJzOP/NQv/vdtJmF+P9ByB5xkkPoXJ0ZKY9CQ6m0m5dSXfDKzuSje6VtMKRFTydHyKHn0XUP9a6WRZT+uRGer2e9Bp5yTfUv+rxzatHL2k5uelJLWdmX5XJ1pm56cVbP1d7q+MLykmt15C8mXsfkr5+r2kO5z9X6//9TrIY7z8Ac22qy+4dSXBYuuyHVfMIQfqb5IpVlHrREqtYl6I1w4yR+TZbqFZl23yrXdmuqktVmFMHr7xQDV3IvDJdp352K7QN8y28v35/TfPtvGDK1Ta9b9ex1lei6t/Ryy0p3tZl3ytfGWgudJ7jlQ2c2zjrx8gIhM5fsH4xz/9kwfMzum5evYKv1TQmvf7a6OOLfn3d9dTy0GsQ2Hac8x/n/THh+IPLRr9/o0w4/44J9ZuFyPefDjy9/fuvgfNc7/HE99+c6w+8M8kDp6e231R3cS3jG+Pa0rpPiRUe3xeK/iapv21mKrY08hmp2DPMGOlvs2rb9aItZf2tVk324blUAp+N+mJSsmz3W68ut87VhcwUKl79bnVgZ5fd55U35cGUNwsltdxd112/ZD58zbfz+p1b3hDZL1li6+cc2nJpPr3Hr69E1T99Ijc9WyqZvDRMea832Fy4KeXA9sv2V//iF2f9iIyAvjAHz1+vbIsVt/6R9EUxeH7K6vzsS92U6u3blYyZ0bPqOWPqOU7U6z/++KJfX12fRv5OSl/94+/ZlpS8i3eM8x/1/og6/qj372QR51+ZWL9ZiHz/6SZys399bvfrzmeJk52K8f6be/2BdyZh4JSVvX4znZo2unI1si1O94W6l9SnHfGH28Vryjdq6jLnSm9uyd0PL3LoyKV9KN8CVyq36c9/vkd/GPe8toJczpQ35Xv91smSed9YLX3Vvfvhf6vNl/sXwszhZwnFNHHWV8bXP44f6sLvb19dV2ZI1V8a4UBXXawaamnw0vPi+ncu1YXuWyCQUMGKXRE/VEgq6vWPcXwTX1/tVrbKgfeTCpa+BQLnyeK9P+IY/f6NEHn+Z1e/l1H7v6tIsf/mUuc2EEh6xr//3rr+wPKZbVNd9oMMNca1W3Kmg6bdL7JD1DSS05Sgrub6G/G++RCbtqnlTWUqTpbB+8bqTDcnIy6gYyRdf6KOVIPZDjXZlS1ThteRmbrfXshc3x8zsGD104HRVBb9/AILJlHg1G6Ffyn3eH0v3dQvZs4tP7tPye6RCZpUEEXn8GFeU4Lu2N3Iu00Wr9e5Oy2bUhxoOtJ9Hkb15RglJ8Wpmp4GJV1fU8ewdSf+l+hCoB+H+bWi81jpVOVr8c7MeCatHyUnB1Ia6pPzXS2NldGIkv4s1nlFbdHXrBTl1jz29DMIus/QVCm1qNd/FsenvgyEdqCzXJZ87r/FJ53/eO+Plx9/hMjzP4v3bxLq9dk6D2Tv1BeF0jTH/9b1B5bQ8fFx788//3zx9J9//9b77Tcz/fs/gbL/9P7tLQ9M//5PeH09PT4+znXq/aa+RJlpqGxB2JV8r2LbvUq+0lPf/qZiVzI99VKGpkzFbKWR7y9TgdnwvEPtNxNcP6PqYop6jV6+v3xUuTa4vpoy+jgC6+qdmX3rurl19rYzbn0lVv2VwHKRvNqzL3x+1HkO7dsYu/6IuunJq59j8BwFth23/pPYlV7GrKOnTKXi7q+/geD+Vd3NPmJvf+gYB1/fcccX7/VVXwbMOfe3MVS3sedfm/D+cEw6/sG662nw+CJEnv+o+k0S9f6a/v2XV+c72d+/mmLXH/j5rOjA6fT0VP2tvJ3n52fzaD7WfvfbCP/4Ndx9fW1tzTx6W81CQaRoSamyKTf85hjviPPergX6OGGudGf/yuYNty4A5mSutyNAfDl9YdG/MOLTDu+I7r+3Xze3GuCXWnMSvB3BivPLQT5GgPkhcAIwN07/Pa/DMVfzOXFvPst5Bl4HgRMAAEBMBE4AAAAxETgBAADEROAEAAAQE4ETAABATAROiK9ZGDM6+4JY9PoBAJZewsBJD957Jmf9qaWWDHDGqjPljLcyA3o4jEn3xBlfru+p89LAwhtPr76v7xUTdziWAD2MhrnPzDzG4VuK+s1p2wCA15M847SalaOjIzPtSdYs1h6vL8xYdW75buqeseoSy0mt15C8mRs2vlzfU+dFt3hRQUXJsvv3iWmM3/loevywktUfSLRsf50+sJlkWeo3dcUAAItmrk11H3e+yNGXHfEHPMFI+sJtsh2jsxImi+RMo7IpEeWBbMpLM05bm/6gw7najYTHIA7fuXi7UFCTv6POpS2H3/zR1nPFQ7H9UUlnYqHrl6u94qDNAIB5Sh44PbX9priLawmPBKc9yvWFW37V3ZC9YEoKxqaUbTfbMZzx0Bf9klj98rLY1r74459HlSvqwu2UvTTjkSuKVdJBx5gmsGZF7LK3f1V/tffB0fsH3dkP5tEMLHr9AADvRsLAKSt7/WY6NW105WqoLe6j7Hxxy7O6TxRNdSP8kJLlZ0T2g1FP51Lsw2+BDEpOanZFMmYusnwmvCEddFA2IkDJHYg4fYtM/e9UoPKqwz4sev0AAO/FbJvqsh9k1TwcJavTTX8ROYV1pPrVlrLJhujJrmyZssXQLHiBiO4/perY2JJwQsYs96ayLVZEm+CWtW4eJbfo9QMAvB+JAqd260wurv3Gucfre+mmfjFzbnkww9RWM8FyaA+iLuPSv0x3qvK1eGdmlPRnsc4rErzMNytFv6kpqnwmbqUYyIitlCwpBhI2fuAyWvqzFeoz1Kyci/V5oM+P6Yf1sl+dLXr9AADvRaLAKbt3JBvdq34fJ92H6cuO3xU8u7crqXvT/0lNbcmGyqHlpHioLtTeRd+y5bAiKhDwLvZpOflmSckrV1PJqki+vm9uORBVHugY3f+5vpq2q6okHm+Ee7uSl4ruS3Xjd6R2DQcuoaaw9Ikc2Fa/vGQFmxZdnR86WMxL+QWdqBe9fp3qtrttdf5vi2Y/ERkvAMBiWjk+Pu6dnp6a2bfx/PxsHs3H2u9+sPbHr+Hu62tra+YRonSqBbn8XBsKKpLTwZ0l54d2ol+fLXr9AADLb7Z9nPCupU/mEZRoD2LfviybE7To9QMALD8CJywA3Xm7pv6/qBa9fgCA10LgBAAAEBOBEwAAQEwETgAAADEROAEAAMRE4AQAABATgRMAAEBMCQOntrTMXcHdqaWWjOI+Lzg8CwAAwLJJnnFazcrR0ZGZ9iRrFge1W/eSyq5LyswDAAAso7k31T1eX8h96pPsMLYvAABYcskDp6e231R3cS2hxrh2a2jgXwAAgGWVMHDKyl6/mU5NG125avm9nNp/PfmB1dWDPD1cSaAYAABgqcy2qS77QVbNQy27FwiqdtdldX1X9kZ1ggIAAFgCiQKndiv8S7nH63vppujMBAAA3qdEgZPOKG10r/p9nMb1Z9IdxGmqAwAAy27l+Pi4d3p6ambfxvPzs3k0H2u/+8HcH7+G7yW1trZmHgEAAEw22z5OAAAA7xiBEwAAQEwETgAAADEROAEAAMRE4AQAABATgRMAAEBMBE4AAAAxETgBAADElDBwakvL3DXcnVpqSVBUOUI6VdnerkrHzMbRLKzIykpBmmb+TTQLqg66HitSeNOKAAAwX8kzTqtZfyDfoz0ZGsM3qhy+9Inc3JxI2szGkav1pJE3M28lV5Nerye9N6/IOB2pbr9xcAkAeBdoqntz+qLuZmu8abs6Tc7J0Nmq/jaGgwQ3M2WmYFbLZIu8TJH3vME6hNYvVKcMRJpS8NZ11p82hJm0vl/mLO5nv0z9nPNiSfG2Lvve+ivbEj68yfULnpNOddt9jncOvfNXDZz/oaxh0uMHACyK5IHTU9tviru4lvBIcEpU+U8vLSc3PTdj8+KsjQoKLFvK3jZsS0qBi7e+8JdUeX8fZVss7+Kdq4ldybiPFZ3BGqyDDhaC69vWuQpETGEMzUJJLNvs21m/NFXwMHn9nNR6DclLRqx1NbtuqUcZqdg1VaLoLF7PlkomLw2zfq93IyeBtF5U/bxzclu01PPK7vPKm/LgFjpl9aJ//u3Dc6kEDi/p8QMAFkfCwCkre/1mODVtdOWqFezFFFWO2QgECpoKFr4d2nLppkTkuzTkJhgpqIt9Qy2Nd+nuyKV9KN8C66dPblQAENjfRGr/9VspWn7GxdJR192PgazMOHHW18FTWQUkqtwJIMOB0WTx65epqOCxZo46lwsdf77hn4/05pZavR+2Jjx+AMAimW1TXfaDrJqHI0WV433KVMQ22Zb+NE1frjjrN79L3XlQl+/TJnOS1i/KvLcPAHg1iQKndutMLq79xrfH63vppn4xc9HlmJVbKX4N9qtpSuXcks/OlTknB1Ia6tPzXS0NZkz6GRLdJ2jfDUFcadmUYqjpSa9fGOonNE5OigNNV9OJsb7uZ7QvpinOFqs0+Os+dQxbd+IngdTz+02ZSesXZd7bBwC8pkSBU3bvSDa6V/0+TFfdDfmy89GURpcjOd1/ab+el4but2SaglZWSmJ98zMauZppxgqWF/2wKX1Slq2i5Zbppi7Tn8cLPnI1NxgJrW97zWGBzu0q4Krvm8eBPlbpk28D64fLo0xc3wmadKBnAqNmxel/pesRDJ5yB1t+c5kOsgIZn8n1Mx271T70OXHLA0Gj2X9/f2Y+eP6SHj8AYHGsHB8f905PT83s23h+fjaP5mPtdz9Y++PXcPf0tbU182hBqAtvQWridaUBAACLY7Z9nPACA7cjKFkSSAYBAIAFQuD05gZuR0CnYQAAFhaBE97QwI0hhybu9g0AWCwETnhD+v5LgWzb0BT3XlEAALwOAicAAICYCJwAAABiInACAACIicAJAAAgpoSBU1ta5q7g7tRSS0Z4vJYL7zkX1xK+BSUAAMBySHjncBU4tUT29rJmfoR2S85UNJU92pNxz+LO4QAAYBnMualOBVb3KdmdEDQBAAAsi+SB01Pbb6obbIZ7/EdkVcT2ysc15QEAACyBhIFTVvaOjuTImza6ctUKhEZ/d+Xp4UG307nluym5D5YDAAAskdk21WU/6ARTWGpdLK+d7uNHVf4PncMBAMBSShQ4tVtncnHth0GP1/fSTf1i5pTsnmRTT/LYf8rf0pV/id9VGwAAYHkkCpyye0ey0b3q93G66m7Il51wWJTd25DuldfH6V5S/fQTAADAckl4O4LZ4HYEAABgGcy2jxMAAMA7RuAEAAAQE4ETAABATAROAAAAMRE4AQAAxETgBAAAEBOBEwAAQEwETgAAADElDJza0jJ3DXenllrieZTri2CZOy3yGL/NwoqsrHjTtlQ7psDQ5YWmmYmrWQhs05sKMu1mEgnUYTb1V9PUGwIAYPklzzitZuXo6MhMexIeUGVVsv2yI9ldT5nli6gp36UhvV7PTDdykjZFRq7Wk1rOzMSVq0mvkZd8w9uumhoi+68ZeOg6OPvNmwVTGFV/uyIZUxxPR6rbrxwsAgAwB3NsqvsoO1+CgdSjPD6l5MMCDlXXqW7Lysq+1Ov7ozMqkzI2pqxQrcq2t+52VYUKk2WsdfPIFcp2Bdf3tm/26z1veyAdFlq/UJ0yUGlKwVvXWX/cmup5uix9Ijf9CNJf11mtf67M/jv6vFhSvK3Lvrf9oWze5P0Hj9l9rdS8d45inf84x+c9hwAPADBe8sDpqe03xV1cq/BojMdHeUp9GMhILYb0yY30eg3J5wMZp2BqaVLGxmRk6kVbymZd+/BcKgNX3/p+4MJdsuRbIJ2lA4OSZfv7LttieRd3tX274ud3dNZrsB46mAiub1vnKlAxhTE0CyWxbLNvZ/3SUHDh1l8Fl2bel5OaPneSEScWXLfUo4xU7JoqUXSQ1bOlkslLw2x/MJsXtX/vmG+Llnpe2X1eeVMe3MLI8x/n+AAAiCNh4JSVvUBT3NFGV67GdGJ6fHyS1CKmm2Yk3zCBgpLe3JK7H+GcR6ipSwdG/cyG20R4E4wkVDDQUEvjXdo7cmkfhgIxNxD06zOZ2n/9VoqWH9hZOuq6+xHK2rj11wHSKDp4KquARK2vArjyiGbO8eLtX8tUVHDoBbS5XOj4xp//uNvXx6CPMe55AwD8jGbbVJf9IKvmYdjiNtO9CSeLJDIQW72dTEVsL6jzppsTGY59VHAxrpNX87vJRtXl+7TJnNj7f6F5bx8A8NNIFDi1W2dyce03zj1e30s39YuZC1jgZrq30ZHLc5FN58qdkwMpDfX5+a6WBkOUfgZF9xnaDzaYpWVTigNNg7q/zvCvAkfLSXFE0+JkA529dT+jfTFNcbZYpcG+YKqOW3d+oKif3++H9JL9TyPu9unjBACIlihwyu4dyUb3qt/H6aq7IV92PppS36I307mdj8Odw/3O1zpIMM08KmDp91UKdk42y51gwczr/jjB+VAfpxVL7LLfJJSrmWaufnlJrKIfNqVPyrKltueU6aYw09/HC05yNTdYCa1ve81lEfVX0iffBtYPlI+pf78PlSlXoZ0bGDUrTln/fBi5gy2/uUwHWYGMz8T9ewGNOadueSAojDr/yuTtAwAQ38rx8XHv9PTUzL6N5+dn82g+1n73g7k/fg13X19bWzOPAAAAJpttHycAAIB3jMAJAAAgJgInAACAmAicAAAAYiJwAgAAiInACQAAICYCJwAAgJgInBBfsxC6qeXCWfT6YQJzN/pOVQrxbnkPAG8iYeDUlpa5a7g7tdSSMD0si1ceHJ4FL2XupD02Qhhfru+Q/tLAwrm7ev8O4nGHcwnQd/Q2d+3278o+O4nrt+Dcu9tPOHdzPr/z9yC2WLL+YHtjEU3NO0fuNPweSPL+jy/q7xPAskuecVrNytHRkZn2wuPRtVtyn9rtl290/yvETknpUfwbkjdzw8aX52o9GTdG70Tqolyy7P4AuY3xOx9Nj69XsvoD7Zbtr7MNbJLWb9F5xzfuwOZ9fl9D54fI4WcR9Y+1bpZNRY/v2Oi/B3o9b8gh34vf/1OJ+vsEsOzm2lT3+E9XUv/yhzv5JSXS/dvMwKcvfP1vyqMyBt4AtKO/SUeWB7IRL/0ivBXIAuRq/kWpU93ub9upd2Bf3rfuzqUth9/8selyxUOxL2d7ZR9XP0ewTgN1cwXP32CZXt1dro+vf7wDY92Fsh2zHgcvV5ObwSgg4DXO7zw5584qSr1oiVWsO2MaTpM1c1+T8FiToddw0vvflBWqgb/BqV+/CX9/3vbNfoPvpTjc57tNmP5nRHgg6uTvz8B4lnrbE+o8cvtjP7+87FvBnB9/2+76UeWeyX+fwGtLHjg9tf2muotrCSaUPu58ktS931SnBwHeW9yxft/QppRt75vyYMZAf6jpQXu9cj0gsLpImNLockVdeJ2yl6ZickUzSO5wUJY+uXEyPPlGz724633pBZmK2BO+3t/ZD+bRDEyon0fXzz0/OhuQl0agbs1C8Pz11PkrhT6cdaZCH5MeONiyy+7zypviHYG+sAQzXr2yLdYbf7jP9PzOmXd+MxVbvZcyUlGvxaRAcZB+Dzqvaz6QcQq+9ya9/837tV60pWzWtQ/PpRL75Yv4+1PbtysZM+Mfa1z6+Y38nZS++vXr2ZaUAoFF0vdns6AHHTdletv7dee18E5h1PbHf36Z7Fv9zj0/DZF9kxm1D2257ESVOxuP/PsEXlvCwCkre/1mOjVtdOWqFejl9KjCqA2/fDf1z1AfKGg/1Aeb/41KfW75OpfqQ+RbIIOiPmzsivQ/iqPKZyItJzf6Q0tfFIYDlNyBuvCUvA9ydSEp1SVf9jMg8ze5fvri5V4E9DdX/SFcU2fJ05Tv9Vsny+Gdf6t4qyKPH/0Lk0dfTPoX5FzObMNtIgpd6NX+GmopH+3LI9/w3xPpzS318g+++mO8yt/frWyVA+/Z9Il8CwQWnpe9P1X5XUWK/YNX2w4EekGjt69N+PzS8uX++ckcfh7+XJhYHv/vE3gts22qy36QVfNQe3zsivxiZpSP/+rKX0ROA1SgEfw2qb9RVbZM2WJoFrxARH9DVHVsbEkooZErivrodb+lqwuJ+r7ufxCPsfWyjiwjRdbP4QVNw31f1BWh3z+oP928ZuA3e7M8v/PmNAWpq63OaOybi+Q0TXXvX+aF/b5eRgeO8b3C59c7/PvEcksUOOlfzAV/Kfd4fS/dVCBSQgzm10RmTvcX+Fq8MzNK+rNY5xXz7dDVrBTVd1Ajqnwmwt/4VkrWQGCUlpOym3Wqqn3rTr7BD7X0ZyvU56ZZORfr88DHnunb8LILZlT9BoMmNd9P9eekOFXTzKCcHEgpnOFS2/+uloarkOT4Jot1fheY1xSkm1Mb+bw01IVxmqa6NxXz76+fwdL9gYZSMlHU+zv0Bu3IpW1JvJc46v2pyrfOA9krN2McX8TnV2JJ/z6BOTg+Pu79+eefL57+8+/fer/9ZqZ//2eg/D+9f3tlevqf/+39X6jcnR4fH+c69X5TX1LMNFS2AOxKpqdeCjPlexVnPtOrqK9Z5gm9TL9ceplKpZfXj9WVJrrc7lUyfll/ylRUyXTsiqrb2JW8/eR7plYh6rrY33dmxEbcczB63bjG1S98fs3knTvHiHPUPz8N91yGpsBr4xh8zmB5suOLrn/0+V107munXof89O/L4LEPn4OI938j31/mnNLB+Tii/j5D7w/1HjD7iLt9FUyazwR/H/66s3h/hsvzan/++Yve/vjPr8C6usLmuPW2h97TI8u9/Uz6+wRe34oOnE5PT9V78e08Pz+bR/Ox9rv/y74/fg3fD2Ftbc08QpROtSCXn2vDTV2J6Q62lpwf2okyDfOrX1KzOb73rFkoiBQtKVU25cbrRwOHc25qwX5586V/OVfZvHmFWzcAy4nAicBpAeimtO9y0Hu9i8Preu/Hh3nR/b/6LXv6V4NziWbcwF73uXbMbT/A+0DgROAEAABimusNMAEAAN4TAicAAICYCJwAAABiInACAACIicAJAAAgJgInAACAmBIGTm1pnZ3JWX9qDQ3i+3h90S8PDs+CJWKGC9HTyEHJo8oBAHgnkmecVrNydHRkpj3JmsWOx2v579Oq7Jryje6VtBjkd/nkau7Amo28WTAgqhwAgHdivk11f3cltbEj3u0ns3sqrPqLyGmYvnOvP0jtdqGgJi91o+86rZdv9wfq1EMiOM/tP2fS+i5nBHpTvlKoqucX/IFJ9cCjXplefw4D0QIA8B4kD5ye2n5T3cW1hBrjfklJ995f9nh9L0/df8LPgYpqKmKXe27WRk1lqQdGV8/JQV4kU/nWH4MtffJNKpmMVIpmWISJ67uBVsmy++W2de4Pr+DYlLIdWN/+OjCaOgAA0BIGTlnZ6zfTqWmjK1fBtriPO/Jp9UmuTGB11V2V9ZQpgy93ILLvZ3z271QgFBgrKlesiKipnyFSgVJxq+wPZjtx/Y5c2ofyLTC4bPrkRgVIwXHTfqjAKrC+NzYWAAAImW1TXfaDrJqHno87X/zAau9f0pV/9Zvu4MlJzWR7nKlsixVsakufSDlfl5KTBupItVSX/EFwEM6I9SdS2/tqSzmwvl3ZMmUAACAoUeDUboV/Kaeb4rqpX8zcsHbrXlJWqPs4lGbB7780Tj/rpLNNoqZA3DR5/bRs6jVCcZTuN+Wt8yAqzJJ1Z7nSqcrX4p2ZAQAAQYkCp+ye+0s5r4/TVXdDvuwE8kmP13JhyvR0n/okwWJ4bqUYaCpbKVmhpjqHyTrt79clXz5R4VDQ5PVzNRUalQLlKyWx7BvT1JeT4uG5WF6ZZcuhjtEsL7AKdDxX+657TYLbVVUSpxwAgPdj5fj4uHd6empm38bz87N5NB9rv/vR2h+/hrumr62tmUeLT3fyts4Pxb4ZDJwAAMBrmG0fJ8yFd/sBS/8U7vZcLknlAADwJgicloD7Kziv87bXxAYAAF4bgRMAAEBMBE4AAAAx/fSdw3//uCb/78nMAAAATEDGCQAAICYCJwAAgJgInAAAAGKaTeAUvEP4xbWEehG1W/07hweHZwEAAFg2yQMnHRhddWXDG8j3y44/iK8OqO5TsmvKNrr/FWInAACwrBIGTm1pOYHRnowauvfxsSurn/xAKmutSveRyAkAACynZIHT4z8iqyK210x31lKh1GTd7t/mEQAAwHJJFjj93ZWnhweRrGmm203JfSsqdAIAAFhOyfs4pdbF8trpPn6UVfkn3Dl8QCr1i3kEAACwXJIFTtk9yaaexO+29Ld05V/9Pk0fP6ZCfZra9pOkVHAFAACwjBJnnLJ7G9K98vo43Uuqn35SPu7Ih+6VKTuT+9Qn2SFuAgAAS4qx6hirDgAAxJS8jxMAAMBPgsAJAAAgJgInAACAmAicAAAAYvopOodPsra2Zh4BAABMIvL/A+2ovOskXgMyAAAAAElFTkSuQmCC;" vertex="1" parent="1">
          <mxGeometry x="30" y="-55" width="1127.94" height="1235" as="geometry" />
        </mxCell>
        <mxCell id="3IPXvqQpmTSo59JeqylD-2" value="" style="shape=partialRectangle;whiteSpace=wrap;html=1;bottom=1;right=1;left=1;top=0;fillColor=none;routingCenterX=-0.5;rotation=90;strokeWidth=4;strokeColor=#0000FF;" parent="1" vertex="1">
          <mxGeometry x="120" y="110" width="200" height="60" as="geometry" />
        </mxCell>
        <mxCell id="3IPXvqQpmTSo59JeqylD-4" value="&lt;font color=&quot;#0000ff&quot;&gt;&lt;span style=&quot;font-size: 18px;&quot;&gt;&lt;b&gt;11&lt;/b&gt;&lt;/span&gt;&lt;/font&gt;" style="text;html=1;strokeColor=none;fillColor=none;align=center;verticalAlign=middle;whiteSpace=wrap;rounded=0;" parent="1" vertex="1">
          <mxGeometry x="140" y="105" width="60" height="30" as="geometry" />
        </mxCell>
        <mxCell id="3IPXvqQpmTSo59JeqylD-5" value="" style="shape=partialRectangle;whiteSpace=wrap;html=1;bottom=1;right=1;left=1;top=0;fillColor=none;routingCenterX=-0.5;rotation=90;strokeWidth=4;strokeColor=#00FF00;" parent="1" vertex="1">
          <mxGeometry x="-92.5" y="600" width="715" height="125" as="geometry" />
        </mxCell>
        <mxCell id="3IPXvqQpmTSo59JeqylD-6" value="&lt;span style=&quot;font-size: 18px;&quot;&gt;&lt;b style=&quot;&quot;&gt;&lt;font color=&quot;#00ff00&quot;&gt;15&lt;/font&gt;&lt;br&gt;&lt;font color=&quot;#00ff00&quot;&gt;x&amp;nbsp; &amp;nbsp; 4&lt;/font&gt;&lt;br&gt;&lt;font color=&quot;#336600&quot;&gt;+&amp;nbsp; &amp;nbsp; 1&lt;/font&gt;&lt;br&gt;&lt;font color=&quot;#00ff00&quot;&gt;-----&lt;/font&gt;&lt;br&gt;&lt;font color=&quot;#00ff00&quot;&gt;61&lt;/font&gt;&lt;br&gt;&lt;/b&gt;&lt;/span&gt;" style="text;html=1;strokeColor=none;fillColor=none;align=right;verticalAlign=middle;whiteSpace=wrap;rounded=0;" parent="1" vertex="1">
          <mxGeometry x="140" y="555" width="60" height="30" as="geometry" />
        </mxCell>
        <mxCell id="3IPXvqQpmTSo59JeqylD-7" value="" style="line;strokeWidth=4;direction=south;html=1;rotation=90;strokeColor=#006600;" parent="1" vertex="1">
          <mxGeometry x="440" y="87.5" width="10" height="490" as="geometry" />
        </mxCell>
        <mxCell id="3IPXvqQpmTSo59JeqylD-8" value="" style="shape=partialRectangle;whiteSpace=wrap;html=1;bottom=1;right=1;left=1;top=0;fillColor=none;routingCenterX=-0.5;rotation=90;strokeWidth=4;strokeColor=#FF0000;" parent="1" vertex="1">
          <mxGeometry x="172.5" y="1100" width="70" height="35" as="geometry" />
        </mxCell>
        <mxCell id="3IPXvqQpmTSo59JeqylD-9" value="&lt;span style=&quot;font-size: 18px;&quot;&gt;&lt;b style=&quot;&quot;&gt;&lt;font color=&quot;#ff0000&quot;&gt;2&lt;/font&gt;&lt;/b&gt;&lt;/span&gt;" style="text;html=1;strokeColor=none;fillColor=none;align=center;verticalAlign=middle;whiteSpace=wrap;rounded=0;" parent="1" vertex="1">
          <mxGeometry x="150" y="1105" width="60" height="30" as="geometry" />
        </mxCell>
        <mxCell id="3IPXvqQpmTSo59JeqylD-11" value="&lt;font style=&quot;font-size: 20px;&quot;&gt;&lt;b style=&quot;&quot;&gt;&lt;font color=&quot;#cc00cc&quot;&gt;Total : &lt;/font&gt;&lt;font color=&quot;#0000ff&quot;&gt;11&amp;nbsp;&lt;/font&gt;&lt;font color=&quot;#cc00cc&quot;&gt;+ &lt;/font&gt;&lt;font color=&quot;#00ff00&quot;&gt;61&amp;nbsp;&lt;/font&gt;&lt;font color=&quot;#cc00cc&quot;&gt;+ &lt;/font&gt;&lt;font color=&quot;#ff0000&quot;&gt;2&lt;/font&gt;&lt;font color=&quot;#cc00cc&quot;&gt; = 74&lt;/font&gt;&lt;/b&gt;&lt;/font&gt;" style="rounded=0;whiteSpace=wrap;html=1;strokeWidth=4;strokeColor=#CC00CC;" parent="1" vertex="1">
          <mxGeometry x="650" y="140" width="270" height="60" as="geometry" />
        </mxCell>
      </root>
    </mxGraphModel>
  </diagram>
</mxfile>
